<?xml version="1.0" standalone="no"?>
<!DOCTYPE svg PUBLIC "-//W3C//DTD SVG 20010904//EN"
 "http://www.w3.org/TR/2001/REC-SVG-20010904/DTD/svg10.dtd">
<svg version="1.0" xmlns="http://www.w3.org/2000/svg"
 width="647.000000pt" height="124.000000pt" viewBox="0 0 647.000000 124.000000"
 preserveAspectRatio="xMidYMid meet">

<g transform="translate(0.000000,124.000000) scale(0.100000,-0.100000)"
fill="#000000" stroke="none">
<path d="M180 1223 c0 -20 -5 -23 -37 -23 -46 0 -40 -6 15 -13 35 -4 42 -2 42
11 0 10 -5 24 -10 32 -8 12 -10 11 -10 -7z"/>
<path d="M681 1223 c-1 -20 -8 -22 -58 -26 l-58 -3 57 -2 c50 -2 57 -5 61 -24
l4 -23 2 23 c0 12 6 22 11 22 6 0 10 -10 11 -22 1 -23 1 -23 7 -2 6 20 15 22
106 23 66 2 101 -2 106 -9 11 -18 18 11 9 40 -7 24 -7 24 -8 3 -1 -22 -4 -23
-105 -23 -101 0 -105 1 -109 23 l-4 22 -2 -22 c0 -13 -5 -23 -10 -23 -5 0 -12
10 -14 23 l-4 22 -2 -22z"/>
<path d="M961 1224 c0 -11 3 -14 6 -6 3 7 2 16 -1 19 -3 4 -6 -2 -5 -13z"/>
<path d="M1420 1220 c0 -19 -6 -20 -166 -19 -91 0 -169 -2 -172 -5 -3 -3 73
-6 169 -6 l174 0 -2 -74 c-2 -48 1 -77 8 -82 8 -5 10 1 6 18 -4 14 -4 28 0 31
10 11 11 67 2 73 -5 3 -7 10 -3 15 3 5 7 23 9 39 3 21 0 30 -10 30 -8 0 -15
-9 -15 -20z"/>
<path d="M1931 1223 c-1 -25 -16 -31 -24 -10 -4 10 -6 10 -6 0 -1 -10 -32 -14
-113 -15 l-113 -2 103 -3 c88 -3 102 -6 103 -21 0 -14 2 -14 7 -2 4 8 15 16
24 18 15 2 18 -8 21 -70 l3 -73 2 73 2 72 120 -1 120 -1 1 -56 c1 -32 4 -45 6
-30 3 22 10 28 36 31 l32 4 -32 1 c-28 2 -33 6 -33 27 l0 26 110 -2 c61 -1
113 1 117 5 3 3 -46 6 -110 6 -112 0 -116 1 -120 23 l-4 22 -2 -22 c-1 -22 -4
-23 -120 -23 -116 0 -120 1 -124 23 l-4 22 -2 -22z"/>
<path d="M2432 1215 c0 -16 2 -22 5 -12 2 9 2 23 0 30 -3 6 -5 -1 -5 -18z"/>
<path d="M2931 1224 c0 -11 3 -14 6 -6 3 7 2 16 -1 19 -3 4 -6 -2 -5 -13z"/>
<path d="M3181 1223 c-1 -21 -6 -22 -103 -26 l-103 -3 102 -2 102 -2 4 -127 3
-128 2 127 2 127 118 4 117 3 -117 2 c-112 2 -117 3 -121 25 l-4 22 -2 -22z"/>
<path d="M3433 1115 c1 -119 2 -121 4 -27 l4 102 118 0 118 0 2 -121 c2 -94
-1 -120 -11 -118 -7 1 -40 0 -73 -2 l-60 -2 65 -6 65 -6 -2 -269 c-1 -148 -5
-271 -8 -274 -3 -3 -11 0 -18 8 -10 10 -9 12 3 6 13 -7 13 -6 0 6 -16 14 -35
42 -47 68 -4 8 -13 21 -21 29 -7 7 -10 21 -7 29 3 9 3 13 -1 9 -10 -10 -43 43
-37 59 3 8 -2 14 -11 14 -9 0 -16 5 -16 11 0 5 5 7 12 3 7 -4 8 -3 4 5 -4 6
-11 9 -15 6 -13 -7 -61 71 -51 81 13 13 0 54 -17 54 -9 0 -11 -5 -7 -12 5 -9
2 -9 -9 1 -20 16 -22 25 -4 16 6 -4 1 2 -12 13 -16 13 -21 24 -16 33 5 8 4 11
0 6 -10 -9 -68 80 -61 92 3 4 28 9 56 10 l50 1 2 -77 c2 -76 2 -76 5 -16 l4
62 52 4 52 3 -52 2 c-52 2 -53 2 -54 35 -1 17 -3 25 -6 15 -3 -13 -17 -16 -66
-16 -132 0 -129 1 -116 -24 11 -20 10 -21 -2 -11 -12 10 -15 8 -15 -7 0 -10 4
-16 8 -14 4 3 8 -30 8 -73 0 -43 1 -85 2 -93 0 -8 0 -75 0 -149 l-2 -133 -25
4 c-16 3 -25 1 -25 -7 0 -8 9 -10 25 -7 24 4 25 3 25 -57 0 -39 -4 -60 -10
-56 -5 3 -10 1 -10 -4 0 -6 6 -11 13 -11 8 0 7 -4 -3 -10 -11 -7 -11 -10 -2
-10 7 0 11 -4 7 -9 -3 -6 3 -8 14 -6 14 2 18 -1 14 -11 -3 -8 0 -14 6 -14 6 0
11 7 11 16 0 8 3 13 8 11 4 -3 6 32 4 78 l-3 84 38 4 38 4 -37 1 c-37 2 -38 3
-38 40 0 21 6 44 13 51 10 11 10 13 0 7 -10 -5 -13 11 -13 68 0 75 3 81 37 77
6 -1 14 3 18 9 4 6 -6 10 -24 10 -23 0 -31 5 -32 18 0 9 -1 45 -2 79 -2 57 -1
60 15 46 9 -8 27 -39 39 -69 13 -30 26 -54 30 -54 12 0 50 -72 45 -86 -3 -7 0
-16 6 -20 7 -5 8 -2 3 7 -6 10 -4 10 7 -1 8 -8 26 -35 39 -60 13 -25 34 -56
46 -70 12 -13 33 -45 45 -69 13 -25 29 -52 36 -60 7 -7 11 -20 8 -28 -3 -8 -1
-11 4 -8 6 3 14 -5 20 -20 10 -27 49 -48 64 -35 4 5 8 45 7 90 l-1 82 26 -6
c17 -5 23 -3 19 4 -3 5 -15 10 -25 10 -19 0 -19 10 -19 241 l0 241 94 -4 c52
-1 91 0 87 4 -4 4 -50 8 -102 10 l-95 3 -1 118 -1 118 113 -2 c105 -1 114 -3
114 -20 0 -10 5 -19 10 -19 6 0 10 9 10 20 0 19 7 20 91 20 l91 0 -6 -26 c-6
-22 -5 -24 7 -12 8 7 13 18 10 24 -2 7 6 12 21 12 l24 0 1 -119 1 -118 -120 1
-120 2 0 80 c0 45 -5 88 -11 96 -7 11 -9 -13 -7 -83 3 -82 2 -97 -10 -92 -11
4 -12 2 -5 -7 6 -8 9 -109 8 -253 l-2 -240 -31 3 c-22 3 -32 -1 -32 -10 0 -10
10 -14 34 -12 l34 3 -1 -72 c0 -40 -4 -78 -10 -85 -7 -9 -5 -11 8 -6 11 5 16
3 12 -2 -3 -6 -2 -16 4 -24 7 -12 9 -10 9 8 0 17 6 22 24 22 13 0 26 -7 30
-15 3 -8 11 -15 18 -14 10 0 10 2 1 6 -31 12 -7 19 70 20 45 1 102 7 127 13
25 6 51 12 58 12 15 2 106 88 92 88 -6 0 -6 9 -1 23 13 35 6 125 -12 145 -12
13 -14 21 -6 29 8 8 8 13 0 18 -6 3 -11 3 -10 -2 3 -20 -2 -25 -16 -13 -8 7
-12 17 -8 24 3 6 3 8 -2 4 -11 -10 -47 11 -40 23 4 5 11 7 16 3 5 -3 8 -2 7 3
-1 4 4 17 11 29 12 18 20 20 47 14 18 -4 44 -5 59 -3 l26 6 -2 -107 c-1 -59 1
-110 5 -113 6 -6 11 145 7 194 -1 12 3 24 9 28 5 3 10 2 10 -3 0 -5 11 -7 25
-4 l25 4 0 -85 c0 -46 3 -99 6 -116 5 -24 3 -31 -10 -31 -9 0 -16 -8 -16 -17
0 -12 3 -14 8 -6 12 19 36 -2 29 -26 -3 -12 0 -24 5 -28 7 -3 8 -1 4 5 -4 7
-2 12 3 12 10 0 12 -5 11 -25 0 -3 11 -17 24 -32 14 -15 22 -31 19 -36 -3 -6
-1 -7 4 -4 14 9 76 -17 66 -27 -4 -4 0 -4 10 0 9 3 25 3 35 -1 23 -9 119 -10
162 -1 19 5 54 19 78 33 27 15 51 22 65 18 21 -5 21 -5 -2 8 -23 14 -23 15 -5
25 10 6 15 12 10 12 -5 0 -4 6 2 12 5 7 13 35 16 61 6 41 10 46 22 36 12 -9
14 -9 10 2 -2 8 -7 30 -10 49 -5 26 -3 31 5 20 8 -11 9 -8 5 15 -6 33 -9 80
-7 108 1 11 8 18 19 16 40 -4 82 2 82 11 0 6 -25 10 -56 10 -55 0 -56 0 -50
26 5 17 3 23 -4 19 -14 -9 -13 28 3 44 10 10 9 11 -5 6 -14 -6 -18 -2 -18 18
0 14 7 33 16 41 8 9 11 16 5 16 -5 0 -15 -8 -21 -17 -9 -17 -11 -17 -20 -1 -6
10 -24 30 -41 46 l-30 28 98 3 c121 3 137 11 21 11 -60 0 -88 4 -91 13 -4 10
-6 10 -6 0 -1 -7 -5 -13 -10 -13 -6 0 -12 19 -14 43 l-4 42 -1 -44 -2 -44 -37
7 c-21 3 -75 6 -120 6 l-83 0 0 115 0 114 113 4 112 3 -112 2 c-107 2 -112 3
-116 25 l-4 22 -2 -22 c-1 -22 -4 -23 -120 -23 -116 0 -120 1 -124 23 l-4 22
-2 -22 c-1 -22 -4 -23 -120 -23 -116 0 -120 1 -124 23 l-4 22 -2 -22 c-1 -17
-7 -23 -25 -23 -18 0 -26 7 -29 23 l-4 22 -2 -22 c-1 -22 -1 -22 -215 -23
-214 0 -215 0 -219 23 l-4 22 -2 -22 c-1 -22 -4 -23 -120 -23 -116 0 -120 1
-124 23 -2 12 -4 -36 -4 -108z m997 50 c0 -25 -1 -25 -80 -25 -64 0 -80 3 -80
15 0 9 -9 15 -22 14 -13 0 -17 -3 -10 -6 23 -9 12 -23 -18 -23 -25 0 -30 4
-30 24 0 24 1 24 120 25 l120 1 0 -25z m56 9 c-3 -8 -1 -14 4 -14 6 0 10 6 10
13 0 8 26 13 90 14 90 3 90 3 90 -22 0 -19 -6 -25 -22 -26 l-23 -2 23 -4 c21
-4 22 -9 22 -95 0 -76 -2 -89 -15 -84 -8 3 -15 1 -15 -5 0 -6 -6 -7 -12 -3
-25 15 -49 12 -43 -6 3 -10 -9 -39 -30 -70 -19 -28 -35 -59 -35 -67 0 -8 -5
-11 -12 -7 -6 4 -8 3 -4 -4 3 -6 4 -29 0 -51 -6 -39 -8 -41 -37 -35 -19 3 -33
0 -38 -8 -7 -11 -9 -10 -9 0 0 10 -14 13 -50 11 -27 -2 -53 1 -57 6 -5 4 -2 5
4 1 10 -5 11 2 7 26 -4 25 -3 29 5 18 6 -8 11 -10 11 -4 0 5 -5 15 -12 22 -9
9 -9 18 0 37 7 15 8 25 2 25 -6 0 -10 -6 -11 -12 0 -7 -4 -4 -8 7 -10 24 -2
43 10 24 6 -10 8 -8 7 6 -1 11 2 31 5 45 4 14 4 20 1 13 -3 -7 -13 -9 -22 -6
-14 4 -14 3 -3 -5 8 -6 11 -17 7 -27 -6 -16 -8 -16 -29 -2 -12 8 -21 21 -19
27 1 6 -2 9 -7 5 -6 -3 -26 1 -46 9 l-35 15 0 96 c0 94 1 96 23 93 17 -2 23
-11 27 -43 3 -22 11 -49 18 -60 10 -17 11 -11 12 38 l0 57 49 0 c27 0 62 3 79
6 l31 6 4 -88 c3 -84 3 -83 5 27 l2 117 26 0 c17 0 24 -5 20 -14z m144 -238
c0 -3 -4 -8 -10 -11 -5 -3 -10 -1 -10 4 0 6 5 11 10 11 6 0 10 -2 10 -4z m218
-16 c13 0 21 -3 19 -8 -3 -4 6 -8 19 -8 27 -2 83 -53 76 -72 -5 -17 -22 -15
-22 2 0 8 -4 18 -10 21 -6 4 -7 -1 -3 -11 4 -10 2 -15 -3 -11 -5 3 -10 -3 -10
-13 0 -10 4 -16 8 -14 4 3 9 -12 10 -33 1 -35 1 -36 5 -7 2 18 12 39 23 49 17
16 19 14 28 -30 6 -26 9 -58 7 -71 -1 -13 2 -24 7 -24 5 0 8 -40 7 -89 -2 -50
-6 -88 -11 -85 -4 3 -7 -3 -6 -13 3 -37 -2 -53 -17 -53 -28 0 -40 21 -36 64 2
23 1 38 -3 35 -3 -3 -7 -27 -7 -52 -2 -40 -5 -46 -19 -42 -10 3 -23 -2 -31
-11 -13 -16 -12 -16 8 -6 17 10 25 9 37 -4 9 -8 16 -11 16 -5 0 6 11 11 25 11
23 0 24 -2 13 -25 -6 -14 -15 -25 -20 -25 -5 0 -7 -4 -3 -9 3 -5 1 -12 -4 -15
-5 -4 -12 2 -14 11 -4 14 -5 14 -6 -3 -2 -40 -100 -84 -102 -47 0 14 -3 12
-10 -6 -8 -20 -14 -22 -47 -17 -20 4 -47 7 -59 7 -21 1 -23 6 -23 60 0 45 4
60 18 68 16 10 16 10 0 11 -16 0 -18 12 -18 114 l0 115 -32 15 c-17 9 -46 16
-64 16 -32 0 -33 1 -27 38 3 20 11 40 17 44 6 4 7 10 4 14 -19 19 68 114 91
100 5 -4 11 0 14 6 3 10 8 10 22 -2 16 -13 19 -13 29 3 9 14 19 17 46 13 19
-4 45 -6 58 -6z m-803 -11 c-19 -5 -7 -6 36 -2 116 9 191 -41 194 -131 3 -49
-15 -87 -49 -110 -15 -9 -26 -15 -27 -14 -8 28 -5 36 11 33 10 -2 25 4 32 13
12 15 11 16 -4 3 -10 -7 -18 -9 -18 -4 0 16 -93 10 -98 -6 -3 -10 3 -12 27 -9
29 4 32 3 29 -21 -2 -18 -9 -26 -20 -25 -32 3 -9 -13 35 -24 77 -20 130 -86
123 -154 -6 -66 -14 -80 -38 -67 -13 7 -18 7 -14 1 3 -6 3 -12 -1 -15 -5 -2
-1 -2 7 0 9 3 6 -4 -8 -17 -12 -12 -26 -19 -31 -15 -5 3 -11 0 -13 -6 -6 -17
-88 -24 -100 -8 -8 11 -9 10 -4 -4 5 -16 -1 -18 -70 -15 l-75 3 0 295 c0 162
0 298 0 303 1 4 25 6 54 6 45 -1 48 -2 22 -10z m-595 -169 c0 -5 -4 -10 -10
-10 -5 0 -10 5 -10 10 0 6 5 10 10 10 6 0 10 -4 10 -10z m1229 -242 l0 -178
-28 14 c-29 16 -59 46 -45 46 5 0 4 4 -3 8 -6 4 -12 14 -13 22 -5 34 0 40 30
34 18 -4 30 -2 30 4 0 5 -16 9 -36 8 -45 -2 -52 13 -52 106 0 36 -3 71 -7 78
-9 15 13 40 36 40 11 0 19 4 19 9 0 4 16 3 35 -3 l35 -11 -1 -177z"/>
<path d="M4462 1150 c0 -14 2 -19 5 -12 2 6 2 18 0 25 -3 6 -5 1 -5 -13z"/>
<path d="M4493 1045 c0 -44 2 -61 4 -37 2 23 2 59 0 80 -2 20 -4 1 -4 -43z"/>
<path d="M4596 1035 c-3 -8 -1 -15 4 -15 6 0 10 7 10 15 0 8 -2 15 -4 15 -2 0
-6 -7 -10 -15z"/>
<path d="M4238 948 c-7 -4 -11 -8 -8 -8 63 -10 92 -10 88 1 -5 14 -61 19 -80
7z"/>
<path d="M4430 949 c-52 -3 -74 -6 -47 -7 51 -2 64 -18 20 -25 l-28 -4 27 -2
27 -1 4 -102 3 -103 2 118 2 117 26 0 c19 0 25 -4 20 -15 -4 -10 1 -15 15 -15
15 0 18 -5 13 -24 -3 -13 -1 -27 5 -30 7 -5 8 -1 4 9 -3 10 0 21 8 26 12 8 12
11 -1 19 -8 5 -19 11 -25 13 -5 3 -7 7 -3 11 3 4 16 3 27 -4 14 -7 21 -7 21 0
0 5 8 10 18 10 15 1 15 2 -2 11 -14 9 -20 8 -26 -1 -4 -7 -9 -8 -11 -4 -2 5
-47 6 -99 3z"/>
<path d="M4480 853 c0 -16 4 -33 8 -40 4 -6 7 6 7 28 0 21 -3 39 -7 39 -5 0
-8 -12 -8 -27z"/>
<path d="M4461 764 c0 -11 3 -14 6 -6 3 7 2 16 -1 19 -3 4 -6 -2 -5 -13z"/>
<path d="M4492 760 c0 -14 2 -19 5 -12 2 6 2 18 0 25 -3 6 -5 1 -5 -13z"/>
<path d="M4682 865 c0 -16 2 -22 5 -12 2 9 2 23 0 30 -3 6 -5 -1 -5 -18z"/>
<path d="M4683 780 c0 -30 2 -43 4 -27 2 15 2 39 0 55 -2 15 -4 2 -4 -28z"/>
<path d="M4799 783 c-13 -16 -12 -17 4 -4 9 7 17 15 17 17 0 8 -8 3 -21 -13z"/>
<path d="M4929 721 c-4 -11 -30 -14 -112 -15 -64 0 -107 -5 -107 -11 0 -5 21
-10 48 -9 26 0 84 2 130 2 45 1 82 6 82 12 0 5 -6 7 -14 4 -9 -3 -16 2 -18 13
-3 13 -5 14 -9 4z"/>
<path d="M4932 620 l1 -65 7 50 c4 28 3 57 -1 65 -5 9 -8 -11 -7 -50z"/>
<path d="M4878 653 c6 -2 18 -2 25 0 6 3 1 5 -13 5 -14 0 -19 -2 -12 -5z"/>
<path d="M4732 610 c0 -14 2 -19 5 -12 2 6 2 18 0 25 -3 6 -5 1 -5 -13z"/>
<path d="M4712 595 c0 -16 2 -22 5 -12 2 9 2 23 0 30 -3 6 -5 -1 -5 -18z"/>
<path d="M4961 544 c0 -11 3 -14 6 -6 3 7 2 16 -1 19 -3 4 -6 -2 -5 -13z"/>
<path d="M4710 530 c0 -6 7 -10 15 -10 8 0 15 2 15 4 0 2 -7 6 -15 10 -8 3
-15 1 -15 -4z"/>
<path d="M4730 447 c0 -8 20 -13 56 -15 41 -2 55 0 52 9 -6 17 -108 23 -108 6z"/>
<path d="M4855 380 c-8 -13 5 -13 25 0 13 8 13 10 -2 10 -9 0 -20 -4 -23 -10z"/>
<path d="M4867 353 c-4 -3 -7 -11 -7 -17 0 -6 5 -5 12 2 6 6 9 14 7 17 -3 3
-9 2 -12 -2z"/>
<path d="M4016 877 c3 -10 9 -15 12 -12 3 3 0 11 -7 18 -10 9 -11 8 -5 -6z"/>
<path d="M4180 850 c0 -16 4 -30 10 -30 5 0 7 7 3 16 -5 14 -3 15 15 5 26 -14
32 -14 32 0 0 5 -4 8 -8 5 -5 -3 -19 4 -30 15 l-22 20 0 -31z"/>
<path d="M4002 835 c0 -16 2 -22 5 -12 2 9 2 23 0 30 -3 6 -5 -1 -5 -18z"/>
<path d="M4250 819 c0 -6 -9 -8 -22 -3 -13 3 -20 3 -16 -1 4 -4 18 -9 32 -10
18 -2 23 1 19 11 -6 17 -13 18 -13 3z"/>
<path d="M4183 765 c0 -27 2 -38 4 -22 2 15 2 37 0 50 -2 12 -4 0 -4 -28z"/>
<path d="M4016 765 c-9 -26 -7 -32 5 -12 6 10 9 21 6 23 -2 3 -7 -2 -11 -11z"/>
<path d="M3988 703 c7 -3 16 -2 19 1 4 3 -2 6 -13 5 -11 0 -14 -3 -6 -6z"/>
<path d="M4115 620 c3 -5 11 -10 16 -10 6 0 7 5 4 10 -3 6 -11 10 -16 10 -6 0
-7 -4 -4 -10z"/>
<path d="M4115 590 c-3 -5 -1 -10 4 -10 6 0 11 5 11 10 0 6 -2 10 -4 10 -3 0
-8 -4 -11 -10z"/>
<path d="M4181 552 c0 -16 3 -21 6 -12 3 8 10 18 15 21 5 3 3 9 -6 12 -12 5
-16 0 -15 -21z"/>
<path d="M4116 555 c4 -8 8 -15 10 -15 2 0 4 7 4 15 0 8 -4 15 -10 15 -5 0 -7
-7 -4 -15z"/>
<path d="M4251 514 c0 -11 3 -14 6 -6 3 7 2 16 -1 19 -3 4 -6 -2 -5 -13z"/>
<path d="M4181 486 c-1 -37 -2 -38 -31 -33 -16 4 -32 2 -35 -4 -4 -5 -16 -7
-28 -4 -19 5 -19 4 -5 -5 10 -6 35 -7 65 -3 l48 8 -6 40 -6 40 -2 -39z"/>
<path d="M4302 490 c0 -14 2 -19 5 -12 2 6 2 18 0 25 -3 6 -5 1 -5 -13z"/>
<path d="M4116 485 c4 -8 8 -15 10 -15 2 0 4 7 4 15 0 8 -4 15 -10 15 -5 0 -7
-7 -4 -15z"/>
<path d="M4220 449 c0 -5 5 -7 10 -4 6 3 10 8 10 11 0 2 -4 4 -10 4 -5 0 -10
-5 -10 -11z"/>
<path d="M4255 450 c-3 -4 9 -10 25 -12 21 -3 27 -1 20 6 -13 13 -39 17 -45 6z"/>
<path d="M4028 443 c7 -3 16 -2 19 1 4 3 -2 6 -13 5 -11 0 -14 -3 -6 -6z"/>
<path d="M4580 558 c0 -9 7 -19 16 -22 15 -6 15 -4 3 11 -7 10 -15 20 -16 22
-2 2 -3 -3 -3 -11z"/>
<path d="M4585 500 c3 -5 8 -10 11 -10 2 0 4 5 4 10 0 6 -5 10 -11 10 -5 0 -7
-4 -4 -10z"/>
<path d="M4636 371 c-3 -5 0 -14 8 -20 10 -9 15 -8 19 3 9 22 -15 37 -27 17z"/>
<path d="M5931 1215 c-2 -29 -2 -29 -16 -11 -8 11 -15 14 -15 8 0 -7 -7 -12
-15 -12 -10 0 -7 -8 10 -26 14 -15 25 -30 25 -35 0 -4 12 -21 26 -38 14 -17
22 -36 18 -42 -4 -7 -3 -9 3 -6 6 4 16 0 23 -8 11 -13 16 -12 41 6 16 11 34
17 40 13 7 -4 9 -3 6 4 -8 11 117 105 139 105 7 0 11 4 8 8 -2 4 2 10 8 12 7
3 1 6 -14 6 -22 1 -28 6 -29 24 -1 20 -2 20 -6 2 -7 -30 -18 -37 -47 -29 -21
5 -26 11 -23 25 3 11 1 17 -4 13 -5 -3 -9 -12 -9 -20 0 -11 -16 -14 -65 -15
-36 -1 -70 -2 -77 -3 -7 -1 -15 10 -19 24 -7 24 -7 24 -8 -5z"/>
<path d="M6440 1210 c-1 -19 -4 -28 -7 -19 -3 11 -12 14 -33 11 -21 -3 -30 0
-30 9 0 10 -3 11 -8 3 -4 -7 -16 -14 -27 -17 -11 -2 4 -5 33 -6 l52 -1 0 -39
c0 -42 14 -62 24 -35 3 9 6 29 6 45 0 16 5 29 13 29 8 0 9 2 1 8 -7 4 -14 16
-17 27 -3 13 -5 8 -7 -15z"/>
<path d="M5642 1204 c-7 -8 -8 -14 -3 -14 5 0 12 -15 14 -32 l4 -33 1 33 c4
65 18 29 20 -50 3 -109 12 -114 12 -6 l0 85 36 1 c58 2 52 11 -6 10 -29 0 -55
4 -59 10 -4 6 -11 4 -19 -4z"/>
<path d="M5176 1202 c-3 -6 -1 -14 5 -17 15 -10 25 3 12 16 -7 7 -13 7 -17 1z"/>
<path d="M23 1193 c15 -2 39 -2 55 0 15 2 2 4 -28 4 -30 0 -43 -2 -27 -4z"/>
<path d="M263 1193 c15 -2 39 -2 55 0 15 2 2 4 -28 4 -30 0 -43 -2 -27 -4z"/>
<path d="M451 1195 c9 -8 79 -12 79 -4 0 5 -19 9 -42 9 -23 0 -39 -2 -37 -5z"/>
<path d="M981 1196 c9 -9 89 -13 89 -5 0 5 -21 9 -47 9 -25 0 -44 -2 -42 -4z"/>
<path d="M1472 1195 c7 -7 138 -8 145 -1 3 3 -29 6 -72 6 -43 0 -76 -2 -73 -5z"/>
<path d="M2557 1193 c18 -2 50 -2 70 0 21 2 7 4 -32 4 -38 0 -55 -2 -38 -4z"/>
<path d="M2703 1193 c9 -2 25 -2 35 0 9 3 1 5 -18 5 -19 0 -27 -2 -17 -5z"/>
<path d="M2783 1194 c7 -8 128 -6 135 1 3 3 -28 5 -68 5 -40 0 -70 -3 -67 -6z"/>
<path d="M4982 1195 c8 -8 157 -9 165 -1 3 3 -33 6 -82 6 -49 0 -86 -2 -83 -5z"/>
<path d="M5238 1193 c17 -2 47 -2 65 0 17 2 3 4 -33 4 -36 0 -50 -2 -32 -4z"/>
<path d="M5372 1193 c24 -3 38 -10 41 -21 3 -12 5 -11 6 6 1 20 -3 22 -41 20
l-43 -1 37 -4z"/>
<path d="M5432 1180 c0 -14 2 -19 5 -12 2 6 2 18 0 25 -3 6 -5 1 -5 -13z"/>
<path d="M5503 1193 c9 -2 25 -2 35 0 9 3 1 5 -18 5 -19 0 -27 -2 -17 -5z"/>
<path d="M5808 1173 c3 -17 7 -22 10 -13 2 8 11 21 20 28 14 10 12 12 -10 12
-22 0 -25 -3 -20 -27z"/>
<path d="M1181 1163 c0 -12 -9 -24 -18 -26 -16 -4 -16 -5 -1 -6 9 0 19 -9 21
-18 4 -17 5 -17 6 0 0 10 6 15 11 12 6 -3 10 1 10 10 0 9 -4 14 -9 10 -5 -3
-12 5 -14 17 -4 23 -4 23 -6 1z"/>
<path d="M2430 1147 c0 -20 4 -38 9 -41 4 -3 6 11 4 31 -5 50 -13 55 -13 10z"/>
<path d="M3652 1155 c0 -16 2 -22 5 -12 2 9 2 23 0 30 -3 6 -5 -1 -5 -18z"/>
<path d="M5845 1170 c-3 -5 -1 -10 4 -10 6 0 11 5 11 10 0 6 -2 10 -4 10 -3 0
-8 -4 -11 -10z"/>
<path d="M170 1155 c0 -9 5 -15 11 -13 6 2 11 8 11 13 0 5 -5 11 -11 13 -6 2
-11 -4 -11 -13z"/>
<path d="M1515 1160 c4 -7 2 -16 -6 -21 -11 -7 -10 -9 4 -9 19 0 23 25 5 36
-7 5 -8 3 -3 -6z"/>
<path d="M2123 1115 c0 -33 2 -45 4 -27 2 18 2 45 0 60 -2 15 -4 0 -4 -33z"/>
<path d="M2683 1155 c-3 -9 -3 -18 -1 -21 3 -3 8 4 11 16 6 23 -1 27 -10 5z"/>
<path d="M4152 1145 c0 -16 2 -22 5 -12 2 9 2 23 0 30 -3 6 -5 -1 -5 -18z"/>
<path d="M4734 1150 c0 -13 4 -16 10 -10 7 7 7 13 0 20 -6 6 -10 3 -10 -10z"/>
<path d="M4931 1125 l1 -50 9 39 c6 26 6 43 -1 50 -7 7 -10 -6 -9 -39z"/>
<path d="M6235 1146 c-16 -12 -38 -29 -49 -39 -11 -9 -27 -15 -35 -12 -9 2
-23 0 -31 -6 -11 -8 -9 -9 10 -4 30 9 23 2 -47 -49 -29 -21 -53 -40 -53 -44 0
-3 18 -32 41 -64 22 -32 37 -58 32 -58 -4 0 0 -5 10 -11 18 -11 18 -12 -1 -32
-47 -54 -108 -158 -82 -142 13 8 129 -65 142 -89 6 -12 9 -22 7 -23 -2 -1 -1
-5 3 -9 4 -3 5 3 3 15 l-4 22 40 -22 c21 -13 40 -27 41 -33 1 -6 4 25 7 69 l6
80 28 -3 c15 -2 27 1 27 7 0 6 -14 11 -30 11 l-31 0 2 115 1 114 62 4 61 3
-62 2 -62 2 -3 109 -3 108 -30 -21z"/>
<path d="M2733 1145 c-10 -10 -9 -15 4 -19 20 -8 22 -5 14 15 -5 14 -8 15 -18
4z"/>
<path d="M5179 1153 c0 -5 -2 -26 -5 -48 -2 -22 1 -52 7 -68 9 -20 8 -31 -1
-42 -10 -12 -10 -15 4 -15 12 0 16 10 16 44 0 25 -4 47 -9 50 -5 3 -7 24 -4
46 3 22 3 40 -1 40 -3 0 -6 -3 -7 -7z"/>
<path d="M930 1140 c0 -5 5 -10 10 -10 6 0 10 5 10 10 0 6 -4 10 -10 10 -5 0
-10 -4 -10 -10z"/>
<path d="M5860 871 c0 -176 -4 -282 -10 -286 -5 -3 -10 -12 -9 -18 0 -9 2 -8
6 1 2 6 8 10 13 7 4 -3 20 12 36 33 15 20 29 39 30 41 2 2 10 -2 18 -8 10 -8
16 -9 21 -1 4 6 1 9 -6 8 -28 -7 -16 24 36 93 31 41 62 73 68 71 7 -2 9 0 5 4
-4 4 -3 13 2 19 7 8 4 20 -11 38 -11 15 -17 32 -13 38 4 7 3 9 -3 6 -9 -6 -55
51 -98 122 -5 9 -14 19 -19 22 -5 4 -5 12 -1 19 5 8 4 11 -3 6 -13 -8 -36 30
-27 44 4 6 -1 7 -11 3 -12 -4 -15 -3 -10 5 4 7 2 12 -3 12 -8 0 -11 -89 -11
-279z"/>
<path d="M680 1119 c0 -15 -7 -32 -15 -39 -8 -7 -15 -21 -15 -31 0 -9 -7 -24
-15 -33 -8 -8 -15 -20 -15 -26 0 -6 -4 -9 -8 -6 -5 3 -9 -7 -9 -22 0 -40 -108
-268 -125 -264 -37 10 -48 10 -48 0 0 -5 6 -8 14 -5 27 11 37 -17 21 -57 -17
-41 -30 -48 -23 -12 3 14 1 31 -4 38 -6 8 -8 -3 -6 -32 1 -25 -2 -56 -6 -69
-8 -22 -14 -13 -58 78 -27 57 -47 108 -45 115 2 6 -3 17 -10 24 -11 11 -11 17
-2 28 7 8 9 17 5 21 -3 3 -6 1 -6 -5 0 -7 -4 -12 -8 -12 -10 0 -45 74 -45 95
0 8 -3 12 -7 10 -4 -2 -15 13 -24 33 -24 50 -46 123 -35 116 5 -3 9 9 9 27 0
28 -13 34 -16 8 -1 -5 -2 -12 -3 -15 0 -4 -13 1 -27 11 -15 9 -24 12 -20 7 3
-6 1 -12 -6 -14 -7 -3 -11 -27 -9 -71 1 -40 -2 -67 -8 -67 -6 0 -8 -7 -5 -15
4 -9 0 -15 -7 -15 -10 -1 -9 -4 3 -10 15 -9 17 -35 17 -238 1 -416 -1 -389 17
-396 9 -4 19 -4 22 -2 2 3 4 149 4 325 -1 177 1 321 4 321 19 0 44 -24 44 -43
0 -12 7 -32 15 -44 8 -12 12 -30 9 -40 -5 -14 -4 -15 4 -4 8 11 22 -12 61 -94
28 -59 51 -114 51 -121 0 -7 5 -16 11 -19 6 -4 8 -14 5 -22 -3 -8 -2 -12 3 -9
12 8 45 -70 36 -85 -5 -7 -4 -10 3 -5 6 3 25 38 43 76 18 39 36 67 42 63 6 -3
7 -1 3 5 -7 11 13 62 24 62 4 0 7 7 7 15 0 22 35 95 45 95 5 0 7 4 3 9 -9 16
37 103 48 88 5 -7 6 -4 2 10 -3 12 4 42 19 75 l25 53 0 -337 1 -338 -224 0
c-190 0 -225 -2 -230 -15 -4 -12 5 -15 47 -15 412 -3 412 -3 413 -28 2 -32 7
-33 27 -6 17 23 17 23 0 19 -10 -3 -8 0 5 6 15 8 20 18 17 30 -12 36 -14 668
-3 675 7 5 9 2 6 -8 -4 -8 -2 -21 3 -29 6 -10 9 -2 9 24 0 21 -4 36 -9 33 -12
-8 -19 82 -7 94 6 6 1 8 -13 5 -16 -3 -21 0 -18 9 3 7 1 19 -4 27 -6 10 -9 7
-9 -12z m-507 -169 c3 -11 1 -18 -4 -14 -5 3 -9 12 -9 20 0 20 7 17 13 -6z"/>
<path d="M1234 1132 c5 -8 66 -4 66 4 0 2 -16 4 -36 4 -19 0 -33 -4 -30 -8z"/>
<path d="M1353 1133 c9 -2 23 -2 30 0 6 3 -1 5 -18 5 -16 0 -22 -2 -12 -5z"/>
<path d="M1553 1133 c9 -2 23 -2 30 0 6 3 -1 5 -18 5 -16 0 -22 -2 -12 -5z"/>
<path d="M1758 1133 c6 -2 18 -2 25 0 6 3 1 5 -13 5 -14 0 -19 -2 -12 -5z"/>
<path d="M2078 1133 c6 -2 18 -2 25 0 6 3 1 5 -13 5 -14 0 -19 -2 -12 -5z"/>
<path d="M2260 1131 c0 -8 78 -6 86 1 2 3 -16 5 -41 6 -25 0 -45 -3 -45 -7z"/>
<path d="M3460 1136 c0 -8 61 -12 66 -4 3 4 -11 8 -30 8 -20 0 -36 -2 -36 -4z"/>
<path d="M3595 1130 c28 -12 37 -12 30 0 -3 6 -16 10 -28 9 -21 0 -21 -1 -2
-9z"/>
<path d="M3860 1136 c0 -9 30 -14 35 -6 4 6 -3 10 -14 10 -12 0 -21 -2 -21 -4z"/>
<path d="M3950 1130 c0 -5 6 -10 14 -10 8 0 18 5 21 10 3 6 -3 10 -14 10 -12
0 -21 -4 -21 -10z"/>
<path d="M4008 1133 c7 -3 16 -2 19 1 4 3 -2 6 -13 5 -11 0 -14 -3 -6 -6z"/>
<path d="M4760 1130 c0 -5 4 -10 9 -10 6 0 13 5 16 10 3 6 -1 10 -9 10 -9 0
-16 -4 -16 -10z"/>
<path d="M4963 1085 c0 -33 2 -45 4 -27 2 18 2 45 0 60 -2 15 -4 0 -4 -33z"/>
<path d="M5278 1129 c22 -8 80 -4 91 7 2 2 -22 4 -55 3 -47 0 -54 -2 -36 -10z"/>
<path d="M2933 1095 c0 -22 2 -30 4 -17 2 12 2 30 0 40 -3 9 -5 -1 -4 -23z"/>
<path d="M3043 1115 c-7 -8 -20 -18 -30 -23 -14 -8 -17 -25 -17 -85 -1 -42 -3
-78 -6 -80 -3 -3 -3 -52 0 -109 3 -56 4 -105 3 -107 -1 -2 -15 -4 -29 -5 -15
-1 -29 -7 -32 -14 -3 -9 5 -11 27 -7 l31 5 1 -52 c0 -29 0 -121 0 -204 0 -143
1 -152 19 -157 11 -3 23 -1 26 5 3 5 6 97 5 204 l0 194 28 0 c15 0 31 3 35 7
4 4 23 8 42 10 33 2 34 1 35 -35 l1 -37 7 35 c3 19 3 87 0 150 l-5 115 -2
-107 -2 -108 -70 0 -70 0 0 115 0 115 42 0 c50 0 46 10 -6 12 l-37 1 3 69 c2
37 6 68 11 68 4 0 7 -5 7 -12 0 -6 2 -9 5 -7 2 3 1 17 -3 31 -6 21 -9 23 -19
13z"/>
<path d="M4078 1123 c6 -2 18 -2 25 0 6 3 1 5 -13 5 -14 0 -19 -2 -12 -5z"/>
<path d="M1681 1104 c0 -11 3 -14 6 -6 3 7 2 16 -1 19 -3 4 -6 -2 -5 -13z"/>
<path d="M2577 1109 c-10 -6 -25 -8 -34 -5 -8 4 -22 1 -29 -5 -11 -9 -18 -8
-31 2 -10 7 -15 9 -11 5 11 -12 -29 -39 -44 -30 -6 4 -8 3 -4 -4 3 -6 -4 -18
-16 -26 -12 -9 -18 -16 -13 -16 6 -1 1 -8 -10 -18 -11 -9 -20 -23 -21 -29 -2
-30 -5 -33 -31 -34 -23 -1 -24 -3 -6 -6 12 -2 24 -14 27 -27 3 -12 17 -28 32
-34 26 -12 28 -40 3 -34 -9 2 -8 -3 4 -16 9 -10 14 -22 10 -27 -5 -4 -2 -5 5
-1 9 6 10 11 2 21 -8 9 -6 14 5 19 11 4 14 2 9 -6 -5 -8 -2 -9 11 -4 15 5 16
4 6 -8 -7 -8 -11 -27 -8 -43 4 -27 4 -27 6 5 1 29 13 42 24 25 2 -5 2 -2 0 5
-2 9 6 12 27 8 30 -4 46 5 32 18 -4 4 -7 15 -7 23 0 9 -6 18 -14 21 -10 3 -12
0 -8 -12 5 -14 3 -15 -13 -6 -10 6 -26 20 -35 33 -8 12 -18 21 -20 19 -3 -2
-10 -2 -16 0 -15 5 17 79 32 76 7 -2 19 9 26 25 13 25 22 29 71 31 9 1 20 5
23 10 10 13 70 -4 62 -17 -4 -7 1 -6 10 2 20 16 52 7 41 -11 -6 -10 -5 -10 7
-1 19 16 53 -5 73 -45 16 -33 22 -142 7 -142 -6 0 -8 -7 -5 -15 4 -8 1 -15 -5
-15 -6 0 -11 -6 -11 -13 0 -8 -10 -23 -23 -35 -25 -24 -43 -29 -31 -10 4 7 3
8 -5 4 -6 -4 -9 -11 -6 -16 3 -5 -4 -18 -16 -29 -17 -16 -26 -18 -42 -10 -15
9 -18 8 -12 -1 6 -10 -4 -12 -44 -8 -28 3 -51 1 -51 -3 0 -10 4 -10 68 -12
l42 -1 -27 -23 c-16 -12 -37 -22 -47 -23 -11 0 -17 -3 -14 -6 3 -3 -14 -24
-39 -47 -36 -33 -46 -38 -54 -26 -6 10 -9 11 -9 1 0 -8 -5 -10 -12 -6 -10 6
-10 5 0 -8 10 -12 8 -20 -10 -43 l-21 -27 -18 23 c-10 13 -19 20 -19 15 0 -5
7 -17 16 -27 19 -21 11 -39 -19 -40 -14 -1 -16 -3 -6 -6 13 -3 15 -17 11 -82
-4 -70 -2 -79 14 -83 11 -2 102 -3 204 -1 102 1 200 2 218 3 22 0 32 5 32 15
0 14 -16 19 -52 16 -9 -1 -24 10 -32 26 -8 15 -15 24 -16 20 0 -5 4 -16 10
-26 9 -18 1 -19 -125 -20 -84 -1 -143 3 -156 10 -15 8 -19 8 -15 0 5 -7 -2
-11 -17 -11 -24 0 -25 3 -20 43 7 69 13 88 26 86 7 -1 26 -1 44 0 26 1 31 4
26 18 -4 11 -8 13 -11 5 -2 -7 -8 -9 -13 -6 -6 3 -16 0 -24 -6 -8 -7 -15 -9
-15 -4 1 15 27 44 39 44 7 0 10 4 7 8 -3 5 22 31 55 58 34 27 79 64 101 82 41
33 54 40 43 22 -3 -6 1 -7 9 -4 9 3 13 10 10 15 -3 5 1 10 8 11 7 0 18 2 23 3
6 2 20 3 33 4 12 0 22 5 22 11 0 5 -17 7 -37 5 -21 -3 -33 -2 -28 3 6 4 27 26
47 49 20 23 39 38 43 35 3 -4 3 1 -1 11 -5 13 -2 16 12 11 12 -4 15 -3 7 3 -8
6 -10 25 -4 66 7 51 5 64 -18 110 -22 44 -35 56 -85 81 -33 17 -74 29 -92 29
-19 -1 -31 3 -28 8 7 11 3 11 -19 -2z"/>
<path d="M3653 1060 c0 -36 2 -50 4 -32 2 17 2 47 0 65 -2 17 -4 3 -4 -33z"/>
<path d="M4115 1108 c-3 -7 -1 -33 4 -58 l9 -45 1 58 c1 55 -4 71 -14 45z"/>
<path d="M433 1035 c0 -44 2 -61 4 -37 2 23 2 59 0 80 -2 20 -4 1 -4 -43z"/>
<path d="M595 1101 c-4 -7 -1 -10 7 -9 7 2 12 -2 11 -9 -1 -6 3 -10 10 -9 20
3 37 16 37 29 0 7 -6 5 -14 -5 -11 -16 -14 -16 -28 -2 -11 11 -18 13 -23 5z"/>
<path d="M2355 1099 c-11 -16 -1 -19 13 -3 7 8 8 14 3 14 -5 0 -13 -5 -16 -11z"/>
<path d="M5432 1033 l-2 -82 -37 -4 -38 -4 38 -1 38 -2 -2 -80 c-1 -44 1 -83
4 -86 3 -4 6 2 6 12 -2 68 5 124 15 124 7 0 7 3 -1 8 -8 5 -13 43 -16 102 l-3
95 -2 -82z"/>
<path d="M933 1065 c0 -22 2 -30 4 -17 2 12 2 30 0 40 -3 9 -5 -1 -4 -23z"/>
<path d="M2715 1090 c3 -5 11 -10 16 -10 6 0 7 5 4 10 -3 6 -11 10 -16 10 -6
0 -7 -4 -4 -10z"/>
<path d="M5813 1092 c-8 -5 -8 -12 3 -26 13 -19 14 -19 14 7 0 30 0 30 -17 19z"/>
<path d="M2815 1080 c3 -5 8 -10 11 -10 2 0 4 5 4 10 0 6 -5 10 -11 10 -5 0
-7 -4 -4 -10z"/>
<path d="M6420 1078 c0 -4 4 -8 9 -8 6 0 12 4 15 8 3 5 -1 9 -9 9 -8 0 -15 -4
-15 -9z"/>
<path d="M493 1030 c0 -30 2 -43 4 -27 2 15 2 39 0 55 -2 15 -4 2 -4 -28z"/>
<path d="M1875 1070 c-3 -5 -1 -10 4 -10 6 0 11 5 11 10 0 6 -2 10 -4 10 -3 0
-8 -4 -11 -10z"/>
<path d="M3880 1051 c0 -17 -5 -33 -10 -36 -15 -10 -2 -25 22 -25 18 0 20 4
14 31 -3 17 -6 38 -6 45 0 8 -4 14 -10 14 -5 0 -10 -13 -10 -29z"/>
<path d="M4712 1071 c6 -21 24 -25 31 -6 4 8 2 15 -3 15 -6 0 -10 -6 -10 -12
0 -9 -4 -8 -11 2 -9 12 -10 12 -7 1z"/>
<path d="M1201 1054 c0 -11 3 -14 6 -6 3 7 2 16 -1 19 -3 4 -6 -2 -5 -13z"/>
<path d="M2357 1050 c-3 -11 -3 -20 -1 -20 2 0 8 9 14 20 6 11 7 20 2 20 -6 0
-12 -9 -15 -20z"/>
<path d="M4931 1054 c0 -11 3 -14 6 -6 3 7 2 16 -1 19 -3 4 -6 -2 -5 -13z"/>
<path d="M6418 1001 c-4 -81 1 -123 15 -114 9 5 9 3 0 -8 -15 -19 -13 -639 3
-639 7 0 11 65 13 195 1 118 -2 195 -8 195 -5 0 -6 11 -2 28 5 15 13 26 20 25
6 -2 11 4 11 12 0 8 -5 14 -12 12 -9 -1 -12 25 -12 96 0 60 -4 97 -11 97 -5 0
-3 5 5 10 11 7 11 10 2 10 -8 0 -10 5 -5 13 4 6 8 37 8 68 0 75 -22 75 -27 0z"/>
<path d="M2182 1030 c0 -14 2 -19 5 -12 2 6 2 18 0 25 -3 6 -5 1 -5 -13z"/>
<path d="M2496 1025 c-9 -26 -7 -32 5 -12 6 10 9 21 6 23 -2 3 -7 -2 -11 -11z"/>
<path d="M535 1020 c-3 -5 -1 -10 4 -10 6 0 11 5 11 10 0 6 -2 10 -4 10 -3 0
-8 -4 -11 -10z"/>
<path d="M1008 1023 c7 -3 16 -2 19 1 4 3 -2 6 -13 5 -11 0 -14 -3 -6 -6z"/>
<path d="M1075 1016 c-27 -7 -69 -22 -92 -34 l-43 -22 -1 22 c-1 17 -2 19 -6
5 -3 -10 -10 -14 -16 -11 -8 5 -8 3 0 -6 10 -11 4 -23 -33 -62 -97 -104 -137
-255 -99 -384 9 -32 26 -71 37 -86 10 -16 16 -28 12 -28 -5 0 -3 -5 4 -12 9
-9 9 -15 -1 -27 -10 -14 -10 -14 4 -4 13 11 20 9 37 -10 12 -13 19 -27 15 -32
-5 -4 -3 -5 4 -2 12 8 96 -36 87 -46 -3 -3 3 -3 13 -1 10 3 39 -2 63 -10 52
-18 155 -8 244 23 30 10 56 18 58 18 2 -1 2 0 0 2 -1 2 5 12 14 22 15 17 13
17 -38 3 -29 -7 -74 -14 -100 -14 -43 0 -47 2 -51 27 l-4 28 -2 -27 c-1 -27
-3 -28 -57 -28 -38 0 -53 3 -48 11 4 8 -1 9 -16 4 -17 -5 -21 -4 -15 5 6 9 4
11 -4 6 -7 -5 -21 0 -32 10 -11 10 -27 19 -36 20 -18 3 -63 43 -63 57 0 5 8 3
18 -4 15 -11 15 -11 4 1 -7 8 -18 15 -25 15 -7 0 -21 17 -32 37 -17 31 -18 41
-8 57 9 15 10 22 1 27 -7 4 -8 3 -4 -4 4 -7 3 -12 -2 -12 -14 0 -22 58 -16
120 9 89 98 230 146 230 10 0 18 4 18 9 0 16 114 51 166 51 84 0 236 -63 219
-91 -4 -5 -2 -8 5 -7 10 3 23 -16 51 -76 18 -39 16 -143 -3 -181 -22 -42 -60
-75 -89 -77 -21 -2 -25 -6 -21 -25 2 -13 -1 -30 -8 -38 -9 -11 -9 -15 -1 -15
7 0 9 -5 5 -12 -4 -7 1 -6 12 3 10 9 30 20 43 24 45 14 109 84 132 143 24 66
26 121 5 183 -12 33 -12 45 -3 51 8 5 5 8 -8 8 -19 1 -19 1 -2 15 11 8 17 21
14 32 -4 17 -5 17 -6 0 -1 -11 -6 -15 -13 -11 -7 4 -8 3 -4 -4 4 -7 3 -12 -3
-12 -5 0 -18 14 -28 30 -9 17 -22 30 -27 30 -5 0 -6 3 -3 7 10 9 71 8 88 -2
12 -7 12 -6 1 7 -8 11 -23 15 -39 12 -15 -3 -30 0 -34 8 -7 11 -9 11 -9 0 0
-7 -4 -10 -10 -7 -5 3 -10 0 -10 -7 0 -7 -12 1 -26 17 -14 17 -23 24 -19 17 4
-7 -7 -5 -27 7 -18 10 -32 24 -30 32 2 9 0 10 -11 1 -8 -7 -17 -9 -20 -6 -12
13 -173 13 -222 0z"/>
<path d="M2715 1010 c10 -11 20 -18 23 -16 5 6 -23 36 -34 36 -4 0 1 -9 11
-20z"/>
<path d="M250 1006 c0 -8 4 -17 9 -20 5 -4 7 3 4 14 -6 23 -13 26 -13 6z"/>
<path d="M910 1010 c0 -5 7 -7 15 -4 8 4 15 8 15 10 0 2 -7 4 -15 4 -8 0 -15
-4 -15 -10z"/>
<path d="M1430 1004 c0 -8 5 -12 10 -9 6 4 8 11 5 16 -9 14 -15 11 -15 -7z"/>
<path d="M1652 995 c0 -16 2 -22 5 -12 2 9 2 23 0 30 -3 6 -5 -1 -5 -18z"/>
<path d="M5821 994 c0 -11 3 -14 6 -6 3 7 2 16 -1 19 -3 4 -6 -2 -5 -13z"/>
<path d="M2930 976 c0 -15 -7 -26 -17 -29 -14 -4 -12 -5 5 -6 18 -1 22 4 22
29 0 17 -2 30 -5 30 -3 0 -5 -11 -5 -24z"/>
<path d="M5652 980 c0 -14 2 -19 5 -12 2 6 2 18 0 25 -3 6 -5 1 -5 -13z"/>
<path d="M5678 970 c-3 -16 -1 -30 4 -30 4 0 8 14 8 30 0 17 -2 30 -4 30 -2 0
-6 -13 -8 -30z"/>
<path d="M6362 980 c0 -14 2 -19 5 -12 2 6 2 18 0 25 -3 6 -5 1 -5 -13z"/>
<path d="M1678 955 c-2 -19 0 -35 4 -35 4 0 8 16 8 35 0 19 -2 35 -4 35 -2 0
-6 -16 -8 -35z"/>
<path d="M2430 975 c0 -8 4 -15 10 -15 5 0 7 7 4 15 -4 8 -8 15 -10 15 -2 0
-4 -7 -4 -15z"/>
<path d="M2489 973 c-1 -5 -1 -12 0 -17 1 -5 -5 -6 -14 -3 -9 4 -15 1 -15 -9
0 -11 6 -14 16 -10 9 3 43 7 77 8 43 1 50 2 22 5 -61 5 -86 13 -80 23 3 6 4
10 1 10 -3 0 -7 -3 -7 -7z"/>
<path d="M890 948 c0 -4 4 -8 9 -8 6 0 12 4 15 8 3 5 -1 9 -9 9 -8 0 -15 -4
-15 -9z"/>
<path d="M1540 954 c0 -2 16 -11 35 -20 35 -16 35 -17 37 -88 2 -73 0 -326 -2
-361 -4 -58 2 -205 8 -206 34 -6 51 -5 45 4 -7 12 -5 641 3 660 3 8 -8 12 -31
12 -24 0 -34 -4 -30 -12 2 -7 0 -13 -5 -13 -6 0 -10 4 -10 9 0 5 -11 11 -25
13 -14 3 -25 4 -25 2z"/>
<path d="M1875 950 c-7 -11 -7 -661 0 -668 4 -4 277 -6 372 -3 38 2 16 31 -23
31 -33 0 -33 0 -37 53 l-3 52 -2 -52 -2 -53 -119 0 -120 0 -4 48 -3 47 -2 -47
c-1 -27 -6 -48 -12 -48 -5 0 -9 77 -10 194 l0 193 33 -3 c28 -3 30 -2 15 10
-13 9 -18 32 -21 87 l-3 74 -2 -77 c-3 -128 -22 -92 -22 41 0 95 -3 120 -15
124 -8 4 -17 2 -20 -3z"/>
<path d="M5290 948 c0 -4 14 -8 30 -8 17 0 30 2 30 4 0 2 -13 6 -30 8 -16 3
-30 1 -30 -4z"/>
<path d="M5503 948 c-2 -5 3 -8 11 -8 9 0 16 -2 16 -5 0 -13 -35 -75 -42 -75
-5 0 -6 6 -2 13 4 6 3 8 -1 4 -12 -10 -15 -38 -4 -32 5 4 6 -1 3 -9 -3 -8 -13
-12 -22 -9 -13 4 -14 3 -3 -5 16 -11 1 -44 -35 -79 -16 -15 -20 -23 -11 -27 7
-3 2 -4 -11 -3 -12 1 -23 7 -23 12 0 6 -7 14 -15 18 -8 5 -12 12 -9 18 4 5 2
9 -2 9 -5 0 -19 24 -33 53 -14 28 -33 61 -42 71 -10 11 -18 28 -18 38 0 14 -8
18 -42 18 -35 0 -39 -2 -27 -12 9 -7 25 -30 37 -50 19 -33 19 -37 4 -41 -12
-3 -10 -5 6 -6 12 0 22 -7 22 -14 0 -7 18 -38 40 -67 22 -30 38 -60 35 -68 -2
-7 -1 -11 4 -7 5 3 13 -7 18 -22 11 -31 -7 -76 -41 -106 -12 -10 -14 -15 -7
-11 10 5 7 -3 -6 -22 -11 -16 -24 -39 -27 -52 -4 -12 -12 -20 -17 -16 -6 3 -9
0 -7 -7 3 -15 -33 -81 -63 -114 -10 -11 -18 -23 -18 -27 -1 -5 -1 -9 -2 -10
-7 -23 -5 -39 6 -48 10 -9 11 -18 4 -36 -12 -32 -12 -124 0 -124 5 0 5 -16 0
-37 -11 -49 -11 -53 0 -53 6 0 10 8 11 18 1 9 3 51 6 93 l5 76 84 -2 c46 -1
89 1 95 5 22 14 -5 18 -54 9 -95 -17 -156 10 -108 48 15 13 15 13 -5 3 -13 -6
-23 -7 -23 -2 0 14 26 33 34 25 4 -4 4 0 1 9 -4 11 0 18 14 23 12 3 21 11 21
16 0 6 -5 7 -11 3 -6 -3 -3 8 6 25 9 18 20 29 25 26 6 -4 7 2 3 12 -6 16 -5
17 12 3 17 -14 18 -14 7 6 -13 25 0 43 33 45 17 1 18 2 2 6 -11 3 -16 10 -13
20 3 8 6 17 6 19 0 3 5 2 12 -2 7 -4 8 -3 4 4 -4 6 7 35 23 63 l29 52 16 -38
c9 -20 16 -41 16 -45 0 -5 4 -10 9 -12 13 -5 107 -169 114 -199 5 -20 14 -28
37 -31 40 -6 46 6 21 38 -11 14 -17 32 -14 41 5 12 3 14 -7 8 -8 -5 -11 -4 -6
3 3 5 -5 24 -19 41 l-26 30 48 4 48 3 -50 2 c-45 2 -52 6 -74 37 -13 19 -21
41 -18 49 4 9 1 18 -5 22 -7 5 -8 2 -3 -6 5 -9 4 -11 -3 -6 -7 4 -12 12 -12
17 0 6 -11 26 -25 46 -18 28 -22 40 -13 50 13 16 40 63 68 120 11 23 33 57 48
75 15 17 20 28 12 24 -12 -7 -13 -6 -3 4 10 11 15 11 28 0 8 -7 15 -8 15 -2 0
5 -8 13 -17 16 -15 6 -15 8 -3 16 8 6 11 10 6 10 -5 0 -3 6 3 14 7 8 21 12 34
8 12 -3 19 -2 15 2 -9 10 -129 13 -135 4z"/>
<path d="M5770 949 l-45 -6 58 -1 c31 -1 57 0 57 2 0 9 -28 11 -70 5z"/>
<path d="M28 943 c6 -2 18 -2 25 0 6 3 1 5 -13 5 -14 0 -19 -2 -12 -5z"/>
<path d="M318 943 c23 -2 59 -2 80 0 20 2 1 4 -43 4 -44 0 -61 -2 -37 -4z"/>
<path d="M492 943 c22 -3 38 -10 40 -19 2 -11 6 -10 16 6 12 19 10 20 -40 18
-43 -1 -46 -2 -16 -5z"/>
<path d="M1153 943 c15 -2 39 -2 55 0 15 2 2 4 -28 4 -30 0 -43 -2 -27 -4z"/>
<path d="M1778 943 c7 -3 16 -2 19 1 4 3 -2 6 -13 5 -11 0 -14 -3 -6 -6z"/>
<path d="M2008 943 c7 -3 16 -2 19 1 4 3 -2 6 -13 5 -11 0 -14 -3 -6 -6z"/>
<path d="M2067 943 c18 -2 50 -2 70 0 21 2 7 4 -32 4 -38 0 -55 -2 -38 -4z"/>
<path d="M2180 942 c0 -4 16 -6 35 -4 19 2 35 6 35 8 0 2 -16 4 -35 4 -19 0
-35 -4 -35 -8z"/>
<path d="M2278 943 c7 -3 16 -2 19 1 4 3 -2 6 -13 5 -11 0 -14 -3 -6 -6z"/>
<path d="M2415 941 c-10 -17 12 -21 25 -6 10 12 10 15 -3 15 -9 0 -18 -4 -22
-9z"/>
<path d="M2633 943 c9 -2 23 -2 30 0 6 3 -1 5 -18 5 -16 0 -22 -2 -12 -5z"/>
<path d="M2720 946 c0 -2 9 -6 20 -9 11 -3 18 -1 14 4 -5 9 -34 13 -34 5z"/>
<path d="M3458 943 c7 -3 16 -2 19 1 4 3 -2 6 -13 5 -11 0 -14 -3 -6 -6z"/>
<path d="M1560 918 c0 -12 7 -18 23 -17 15 0 17 2 7 6 -8 3 -18 11 -22 17 -5
7 -8 4 -8 -6z"/>
<path d="M3610 920 c-21 -7 -21 -8 -5 -9 11 0 27 4 35 9 18 11 5 11 -30 0z"/>
<path d="M4978 918 c5 -5 16 -8 23 -6 8 3 3 7 -10 11 -17 4 -21 3 -13 -5z"/>
<path d="M18 913 c6 -2 18 -2 25 0 6 3 1 5 -13 5 -14 0 -19 -2 -12 -5z"/>
<path d="M768 913 c7 -3 16 -2 19 1 4 3 -2 6 -13 5 -11 0 -14 -3 -6 -6z"/>
<path d="M1327 901 c2 -9 -2 -11 -14 -7 -15 6 -16 5 -5 -5 10 -11 16 -10 30 5
9 11 12 16 5 12 -6 -3 -13 -3 -16 1 -2 5 -2 2 0 -6z"/>
<path d="M1723 913 c9 -2 23 -2 30 0 6 3 -1 5 -18 5 -16 0 -22 -2 -12 -5z"/>
<path d="M2028 913 c7 -3 16 -2 19 1 4 3 -2 6 -13 5 -11 0 -14 -3 -6 -6z"/>
<path d="M2184 820 c0 -58 1 -81 3 -52 2 28 2 76 0 105 -2 28 -3 5 -3 -53z"/>
<path d="M5095 907 c-5 -7 -11 -21 -13 -31 -3 -18 -2 -18 13 -2 9 9 15 22 13
30 -2 10 -6 11 -13 3z"/>
<path d="M5174 904 c9 -8 14 -20 11 -25 -4 -5 -1 -17 4 -26 9 -16 10 -16 11 4
0 12 6 24 13 26 7 4 6 6 -4 6 -9 1 -19 8 -23 16 -3 8 -10 15 -16 15 -6 0 -4
-7 4 -16z"/>
<path d="M5373 913 c9 -2 25 -2 35 0 9 3 1 5 -18 5 -19 0 -27 -2 -17 -5z"/>
<path d="M5788 913 c7 -3 16 -2 19 1 4 3 -2 6 -13 5 -11 0 -14 -3 -6 -6z"/>
<path d="M3635 900 c-3 -6 1 -7 9 -4 18 7 21 14 7 14 -6 0 -13 -4 -16 -10z"/>
<path d="M180 890 c-9 -6 -10 -10 -3 -10 6 0 15 5 18 10 8 12 4 12 -15 0z"/>
<path d="M432 870 c0 -19 2 -27 5 -17 2 9 2 25 0 35 -3 9 -5 1 -5 -18z"/>
<path d="M646 883 c-6 -14 -5 -15 5 -6 7 7 10 15 7 18 -3 3 -9 -2 -12 -12z"/>
<path d="M1181 884 c0 -11 3 -14 6 -6 3 7 2 16 -1 19 -3 4 -6 -2 -5 -13z"/>
<path d="M2670 880 c-9 -16 -8 -22 6 -27 18 -7 35 13 27 34 -7 19 -21 16 -33
-7z"/>
<path d="M2933 865 c0 -22 2 -30 4 -17 2 12 2 30 0 40 -3 9 -5 -1 -4 -23z"/>
<path d="M6355 891 c-3 -5 -1 -12 5 -16 5 -3 10 1 10 9 0 18 -6 21 -15 7z"/>
<path d="M1115 880 c-3 -5 -1 -10 4 -10 6 0 11 5 11 10 0 6 -2 10 -4 10 -3 0
-8 -4 -11 -10z"/>
<path d="M2737 879 c7 -7 15 -10 18 -7 3 3 -2 9 -12 12 -14 6 -15 5 -6 -5z"/>
<path d="M3364 879 c-10 -16 9 -30 26 -19 13 8 12 10 -3 10 -10 0 -15 5 -12
10 3 6 4 10 1 10 -3 0 -8 -5 -12 -11z"/>
<path d="M285 871 c-3 -2 -5 -9 -5 -15 0 -6 5 -4 11 4 8 12 10 10 5 -10 l-5
-25 19 23 c22 26 27 27 33 7 4 -11 4 -10 3 2 -1 12 -10 18 -29 18 -15 1 -30
-1 -32 -4z"/>
<path d="M796 868 c3 -5 10 -6 15 -3 13 9 11 12 -6 12 -8 0 -12 -4 -9 -9z"/>
<path d="M1237 859 c-3 -12 -10 -18 -16 -14 -6 3 -11 1 -11 -5 0 -7 7 -9 16
-6 9 3 20 6 25 6 6 0 7 5 4 10 -3 6 -1 10 5 10 6 0 8 5 5 10 -10 16 -22 11
-28 -11z"/>
<path d="M1677 873 c-2 -5 -1 -42 3 -83 l7 -75 2 83 c1 76 -2 93 -12 75z"/>
<path d="M1785 870 c-3 -5 -2 -10 4 -10 5 0 13 5 16 10 3 6 2 10 -4 10 -5 0
-13 -4 -16 -10z"/>
<path d="M2359 870 c-20 -13 -5 -22 21 -12 18 7 20 10 8 14 -8 4 -21 2 -29 -2z"/>
<path d="M2957 860 c3 -11 9 -17 15 -14 5 3 4 12 -3 20 -16 19 -18 18 -12 -6z"/>
<path d="M3570 869 c0 -5 5 -7 10 -4 6 3 10 8 10 11 0 2 -4 4 -10 4 -5 0 -10
-5 -10 -11z"/>
<path d="M5346 866 c7 -18 26 -17 30 2 1 7 0 8 -3 2 -3 -8 -9 -7 -19 1 -12 10
-13 9 -8 -5z"/>
<path d="M189 859 c-1 -8 -1 -17 0 -21 0 -5 -3 -8 -7 -8 -8 0 -9 -67 0 -75 3
-3 8 20 11 52 3 31 4 59 2 62 -3 2 -6 -2 -6 -10z"/>
<path d="M1280 855 c0 -8 5 -15 11 -15 5 0 8 4 5 9 -4 5 0 12 6 14 8 3 6 6 -4
6 -10 1 -18 -6 -18 -14z"/>
<path d="M1705 860 c3 -5 8 -10 11 -10 2 0 4 5 4 10 0 6 -5 10 -11 10 -5 0 -7
-4 -4 -10z"/>
<path d="M5412 840 c0 -19 2 -27 5 -17 2 9 2 25 0 35 -3 9 -5 1 -5 -18z"/>
<path d="M651 844 c0 -11 3 -14 6 -6 3 7 2 16 -1 19 -3 4 -6 -2 -5 -13z"/>
<path d="M943 853 c-7 -2 -13 -9 -13 -15 0 -7 4 -7 13 1 10 8 17 7 27 -2 12
-10 12 -9 1 6 -7 9 -14 17 -15 16 0 0 -7 -3 -13 -6z"/>
<path d="M1090 849 c0 -5 -5 -7 -10 -4 -6 4 -9 -3 -7 -17 4 -25 -40 -81 -56
-71 -6 3 -7 2 -4 -4 10 -15 -16 -44 -40 -46 -23 -1 -21 -17 2 -17 8 0 11 -7 8
-20 -3 -11 -9 -20 -14 -20 -5 0 -7 -11 -3 -24 3 -14 1 -32 -4 -42 -7 -12 -6
-31 3 -60 7 -24 11 -45 9 -48 -2 -4 -1 -4 2 -1 4 2 18 -5 32 -15 45 -36 132
-20 132 25 0 15 -6 25 -14 25 -8 0 -16 7 -20 15 -7 20 4 75 16 75 5 0 6 5 3
10 -10 15 15 112 33 133 21 24 35 21 27 -5 -5 -18 -4 -20 4 -8 6 8 8 22 5 32
-2 9 0 19 5 22 11 7 -5 62 -20 72 -5 3 -6 -1 -3 -9 3 -9 -9 -17 -43 -24 -55
-13 -60 -11 -38 10 17 18 19 27 5 27 -5 0 -10 -5 -10 -11z"/>
<path d="M5783 845 c0 -8 4 -15 9 -15 4 0 8 7 8 15 0 8 -4 15 -8 15 -5 0 -9
-7 -9 -15z"/>
<path d="M760 820 c-6 -11 -8 -20 -6 -20 3 0 10 9 16 20 6 11 8 20 6 20 -3 0
-10 -9 -16 -20z"/>
<path d="M5040 832 c0 -5 7 -9 15 -9 8 0 12 4 9 9 -3 4 -9 8 -15 8 -5 0 -9 -4
-9 -8z"/>
<path d="M5683 800 c0 -25 2 -35 4 -22 2 12 2 32 0 45 -2 12 -4 2 -4 -23z"/>
<path d="M1227 823 c-8 -14 -67 -293 -67 -318 0 -42 29 -65 80 -65 25 0 50 4
57 8 18 12 28 63 13 72 -9 6 -11 23 -6 64 4 31 12 54 17 51 5 -3 6 0 4 8 -3 7
1 42 10 78 25 108 25 109 -44 109 -33 0 -62 -3 -64 -7z"/>
<path d="M1420 821 c0 -7 -5 -9 -12 -5 -7 5 -8 3 -3 -5 5 -9 10 -10 18 -2 6 6
8 14 4 18 -4 3 -7 1 -7 -6z"/>
<path d="M2962 800 c0 -14 2 -19 5 -12 2 6 2 18 0 25 -3 6 -5 1 -5 -13z"/>
<path d="M5173 755 c-1 -36 3 -67 8 -71 5 -3 9 -2 10 3 0 4 2 23 5 41 2 17 -1
32 -6 32 -6 0 -6 9 0 26 13 32 13 34 -2 34 -9 0 -14 -21 -15 -65z"/>
<path d="M2480 790 c0 -11 2 -20 4 -20 2 0 6 9 9 20 3 11 1 20 -4 20 -5 0 -9
-9 -9 -20z"/>
<path d="M933 760 c0 -25 2 -35 4 -22 2 12 2 32 0 45 -2 12 -4 2 -4 -23z"/>
<path d="M2300 795 c0 -7 30 -13 34 -7 3 4 -4 9 -15 9 -10 1 -19 0 -19 -2z"/>
<path d="M754 767 c1 -24 2 -25 14 -10 6 9 12 22 12 27 0 6 -4 5 -9 -3 -7 -11
-9 -11 -14 0 -2 8 -4 2 -3 -14z"/>
<path d="M1422 765 c3 -28 11 -24 13 5 1 11 -2 20 -7 20 -4 0 -7 -11 -6 -25z"/>
<path d="M3316 773 c-6 -14 -5 -15 5 -6 7 7 10 15 7 18 -3 3 -9 -2 -12 -12z"/>
<path d="M5067 770 c6 -22 18 -26 29 -9 3 6 0 15 -7 20 -22 14 -28 11 -22 -11z"/>
<path d="M2350 770 c0 -5 5 -10 11 -10 5 0 7 5 4 10 -3 6 -8 10 -11 10 -2 0
-4 -4 -4 -10z"/>
<path d="M3891 764 c0 -11 3 -14 6 -6 3 7 2 16 -1 19 -3 4 -6 -2 -5 -13z"/>
<path d="M5787 773 c-4 -3 -7 -11 -7 -17 0 -6 5 -5 12 2 6 6 9 14 7 17 -3 3
-9 2 -12 -2z"/>
<path d="M2961 754 c0 -11 3 -14 6 -6 3 7 2 16 -1 19 -3 4 -6 -2 -5 -13z"/>
<path d="M5541 754 c0 -11 3 -14 6 -6 3 7 2 16 -1 19 -3 4 -6 -2 -5 -13z"/>
<path d="M6365 759 c-4 -6 -5 -12 -2 -15 2 -3 7 2 10 11 7 17 1 20 -8 4z"/>
<path d="M432 740 c0 -14 2 -19 5 -12 2 6 2 18 0 25 -3 6 -5 1 -5 -13z"/>
<path d="M876 743 c-6 -14 -5 -15 5 -6 7 7 10 15 7 18 -3 3 -9 -2 -12 -12z"/>
<path d="M2931 744 c0 -11 3 -14 6 -6 3 7 2 16 -1 19 -3 4 -6 -2 -5 -13z"/>
<path d="M5500 756 c0 -2 7 -9 15 -16 13 -11 14 -10 9 4 -5 14 -24 23 -24 12z"/>
<path d="M6288 753 c7 -3 16 -2 19 1 4 3 -2 6 -13 5 -11 0 -14 -3 -6 -6z"/>
<path d="M3061 734 c0 -11 3 -14 6 -6 3 7 2 16 -1 19 -3 4 -6 -2 -5 -13z"/>
<path d="M5677 720 c-3 -12 -10 -19 -16 -15 -6 3 -11 2 -11 -3 0 -12 43 -24
51 -14 3 4 0 17 -6 30 l-12 23 -6 -21z"/>
<path d="M3461 704 c6 -7 17 -10 25 -7 20 7 18 10 -11 15 -20 4 -23 2 -14 -8z"/>
<path d="M213 703 c-13 -2 -23 -8 -23 -12 0 -12 43 -6 48 7 2 7 2 11 0 11 -1
-1 -13 -4 -25 -6z"/>
<path d="M363 696 c3 -6 10 -10 16 -8 6 1 16 -9 21 -23 5 -14 11 -25 13 -25 6
0 3 60 -3 61 -34 6 -50 4 -47 -5z"/>
<path d="M598 703 c-10 -2 -18 -8 -18 -12 0 -11 49 -1 56 10 5 9 -8 10 -38 2z"/>
<path d="M892 701 c-11 -7 -11 -9 0 -14 9 -3 15 1 15 9 0 8 -1 14 -1 14 -1 0
-7 -4 -14 -9z"/>
<path d="M1155 700 c3 -5 13 -10 21 -10 8 0 14 5 14 10 0 6 -9 10 -21 10 -11
0 -17 -4 -14 -10z"/>
<path d="M1676 695 c-3 -8 -1 -15 4 -15 6 0 10 7 10 15 0 8 -2 15 -4 15 -2 0
-6 -7 -10 -15z"/>
<path d="M1710 700 c-13 -8 -13 -10 2 -10 9 0 20 5 23 10 8 13 -5 13 -25 0z"/>
<path d="M1823 702 c-13 -2 -23 -8 -23 -13 0 -9 37 -3 49 7 8 7 -4 10 -26 6z"/>
<path d="M2000 701 c0 -7 -5 -9 -12 -5 -7 5 -8 3 -3 -5 5 -9 10 -10 18 -2 6 6
8 14 4 18 -4 3 -7 1 -7 -6z"/>
<path d="M2023 698 c2 -9 28 -13 78 -14 l74 0 2 -123 c1 -67 4 -125 7 -128 5
-6 11 201 7 235 -1 7 12 12 36 13 21 0 75 3 121 5 l82 4 1 -37 c1 -21 1 -43 0
-49 -1 -6 7 -18 16 -25 16 -13 17 -12 5 2 -7 9 -12 21 -11 25 1 5 1 29 0 54
l-1 45 -192 3 c-145 1 -194 -1 -200 -10 -6 -10 -8 -10 -8 0 0 6 -5 12 -11 12
-6 0 -9 -6 -6 -12z"/>
<path d="M2840 700 c0 -5 5 -10 10 -10 6 0 10 5 10 10 0 6 -4 10 -10 10 -5 0
-10 -4 -10 -10z"/>
<path d="M3565 700 c-4 -6 7 -10 24 -10 17 0 31 5 31 10 0 6 -11 10 -24 10
-14 0 -28 -4 -31 -10z"/>
<path d="M3870 700 c0 -5 6 -10 14 -10 8 0 18 5 21 10 3 6 -3 10 -14 10 -12 0
-21 -4 -21 -10z"/>
<path d="M5210 696 c0 -11 7 -13 28 -8 15 4 39 7 55 6 15 0 27 3 27 7 0 5 -25
9 -55 9 -41 0 -55 -4 -55 -14z"/>
<path d="M5487 698 c2 -5 13 -8 24 -8 10 0 19 3 19 8 0 4 -11 7 -24 7 -13 0
-22 -3 -19 -7z"/>
<path d="M5590 700 c-22 -7 -21 -8 13 -9 23 -1 36 3 32 9 -7 11 -10 11 -45 0z"/>
<path d="M5787 704 c-4 -4 -4 -10 -2 -14 6 -10 45 0 45 11 0 10 -33 12 -43 3z"/>
<path d="M6353 703 c-27 -10 -11 -23 27 -23 40 0 53 13 24 24 -18 7 -33 7 -51
-1z"/>
<path d="M266 691 c-3 -5 3 -11 13 -14 14 -3 18 -1 14 9 -6 16 -19 18 -27 5z"/>
<path d="M924 685 c3 -23 12 -26 13 -5 1 11 -2 20 -7 20 -4 0 -7 -7 -6 -15z"/>
<path d="M2795 690 c-3 -5 1 -10 9 -10 9 0 16 5 16 10 0 6 -4 10 -9 10 -6 0
-13 -4 -16 -10z"/>
<path d="M3758 683 c7 -3 16 -2 19 1 4 3 -2 6 -13 5 -11 0 -14 -3 -6 -6z"/>
<path d="M186 661 c-4 -5 -2 -12 3 -15 5 -4 12 -2 15 3 4 5 2 12 -3 15 -5 4
-12 2 -15 -3z"/>
<path d="M1429 665 c-5 -28 -4 -73 2 -70 12 8 16 40 8 60 -4 11 -9 16 -10 10z"/>
<path d="M1679 666 c-6 -6 -1 -257 5 -263 3 -3 5 56 5 131 1 75 -1 136 -2 136
-2 0 -6 -2 -8 -4z"/>
<path d="M5178 647 c-3 -15 -2 -27 3 -27 13 0 17 14 9 35 -6 17 -7 16 -12 -8z"/>
<path d="M5683 610 c0 -36 2 -50 4 -32 2 17 2 47 0 65 -2 17 -4 3 -4 -33z"/>
<path d="M5971 639 c-19 -25 -25 -29 -33 -18 -7 11 -8 9 -4 -5 4 -12 -3 -31
-19 -52 -39 -50 -34 -56 48 -54 39 2 114 2 166 1 52 -1 96 1 99 4 3 2 -1 11
-8 20 -11 13 -10 14 6 9 20 -8 19 -6 -10 16 -13 10 -17 10 -12 3 4 -8 2 -13
-5 -13 -13 0 -177 99 -185 112 -9 14 -20 9 -43 -23z"/>
<path d="M1932 533 c2 -131 6 -116 10 40 2 48 0 87 -4 87 -5 0 -7 -57 -6 -127z"/>
<path d="M2238 653 c6 -2 18 -2 25 0 6 3 1 5 -13 5 -14 0 -19 -2 -12 -5z"/>
<path d="M2335 650 c27 -12 35 -12 35 0 0 6 -12 10 -27 9 -25 0 -26 -1 -8 -9z"/>
<path d="M2929 569 c-1 -52 -1 -98 0 -103 1 -5 -4 -13 -11 -17 -10 -7 -10 -9
0 -9 8 0 12 -17 12 -49 0 -30 -5 -51 -12 -54 -10 -4 -10 -6 0 -6 8 -1 12 -18
12 -53 0 -28 3 -49 6 -45 8 8 7 417 -1 425 -3 3 -6 -37 -6 -89z"/>
<path d="M5330 656 c0 -2 8 -10 18 -17 15 -13 16 -12 3 4 -13 16 -21 21 -21
13z"/>
<path d="M5813 647 c3 -9 2 -17 -3 -17 -6 0 -10 5 -10 12 0 6 -3 9 -6 5 -3 -3
-2 -12 3 -20 6 -12 11 -13 24 -4 15 11 15 14 1 27 -14 13 -15 12 -9 -3z"/>
<path d="M932 630 c0 -14 2 -19 5 -12 2 6 2 18 0 25 -3 6 -5 1 -5 -13z"/>
<path d="M5310 646 c0 -2 8 -10 18 -17 15 -13 16 -12 3 4 -13 16 -21 21 -21
13z"/>
<path d="M2503 625 c0 -8 4 -12 9 -9 5 3 6 10 3 15 -9 13 -12 11 -12 -6z"/>
<path d="M2677 618 c-8 -30 9 -47 18 -18 4 12 3 26 -3 32 -6 6 -11 1 -15 -14z"/>
<path d="M175 620 c3 -5 8 -10 11 -10 2 0 4 5 4 10 0 6 -5 10 -11 10 -5 0 -7
-4 -4 -10z"/>
<path d="M2625 619 c-4 -6 -5 -12 -2 -15 2 -3 7 2 10 11 7 17 1 20 -8 4z"/>
<path d="M3396 614 c-3 -9 -4 -19 -1 -22 3 -3 5 1 5 9 0 11 2 11 10 -1 5 -8
10 -10 10 -5 0 6 -4 16 -9 23 -6 11 -10 10 -15 -4z"/>
<path d="M1530 611 c0 -6 4 -13 10 -16 6 -3 7 1 4 9 -7 18 -14 21 -14 7z"/>
<path d="M3184 530 c0 -52 1 -74 3 -47 2 26 2 68 0 95 -2 26 -3 4 -3 -48z"/>
<path d="M3430 590 c-3 -14 -2 -45 1 -70 l6 -45 1 39 c1 24 9 44 20 52 15 12
15 13 0 8 -12 -4 -17 1 -20 18 -4 23 -4 23 -8 -2z"/>
<path d="M5170 570 c0 -22 4 -40 10 -40 5 0 6 7 3 17 -4 11 -3 14 5 9 13 -8
16 12 6 38 -11 29 -24 16 -24 -24z"/>
<path d="M5770 600 c-13 -8 -12 -10 3 -10 9 0 17 5 17 10 0 12 -1 12 -20 0z"/>
<path d="M2597 585 c3 -8 9 -12 14 -9 12 7 11 11 -5 17 -10 4 -13 1 -9 -8z"/>
<path d="M296 583 c-11 -11 -7 -20 9 -20 8 0 15 4 15 8 0 11 -16 20 -24 12z"/>
<path d="M5810 574 c0 -8 5 -12 10 -9 6 4 8 11 5 16 -9 14 -15 11 -15 -7z"/>
<path d="M732 550 c0 -19 2 -27 5 -17 2 9 2 25 0 35 -3 9 -5 1 -5 -18z"/>
<path d="M6332 560 c0 -14 2 -19 5 -12 2 6 2 18 0 25 -3 6 -5 1 -5 -13z"/>
<path d="M1317 551 c-4 -17 -3 -21 5 -13 5 5 8 16 6 23 -3 8 -7 3 -11 -10z"/>
<path d="M2680 545 c0 -14 5 -25 10 -25 6 0 10 11 10 25 0 14 -4 25 -10 25 -5
0 -10 -11 -10 -25z"/>
<path d="M2816 555 c-3 -8 -1 -15 4 -15 6 0 10 7 10 15 0 8 -2 15 -4 15 -2 0
-6 -7 -10 -15z"/>
<path d="M180 541 c0 -25 6 -27 13 -6 4 8 2 17 -3 20 -6 4 -10 -3 -10 -14z"/>
<path d="M932 505 c3 -57 19 -87 34 -64 4 7 0 17 -8 23 -10 8 -15 25 -13 49 1
21 -2 40 -7 43 -5 3 -8 -20 -6 -51z"/>
<path d="M2528 538 c-19 -19 -13 -24 11 -9 7 5 12 13 10 18 -2 5 -12 1 -21 -9z"/>
<path d="M3203 515 c0 -27 2 -38 4 -22 2 15 2 37 0 50 -2 12 -4 0 -4 -28z"/>
<path d="M3586 547 c3 -10 9 -15 12 -12 3 3 0 11 -7 18 -10 9 -11 8 -5 -6z"/>
<path d="M4392 535 c0 -16 2 -22 5 -12 2 9 2 23 0 30 -3 6 -5 -1 -5 -18z"/>
<path d="M5652 535 c0 -16 2 -22 5 -12 2 9 2 23 0 30 -3 6 -5 -1 -5 -18z"/>
<path d="M890 544 c0 -13 18 -39 24 -34 2 3 -2 14 -10 24 -8 11 -14 16 -14 10z"/>
<path d="M6350 535 c0 -8 2 -15 4 -15 2 0 6 7 10 15 3 8 1 15 -4 15 -6 0 -10
-7 -10 -15z"/>
<path d="M5387 526 c-12 -9 -14 -16 -8 -21 6 -3 14 1 17 9 3 9 11 13 17 9 6
-3 7 -1 3 5 -9 14 -7 15 -29 -2z"/>
<path d="M5681 495 c-5 -89 -2 -308 4 -313 3 -3 5 54 5 126 l0 132 55 -6 c37
-5 59 -3 69 6 8 6 20 9 26 5 5 -3 10 -1 10 4 0 14 -47 14 -55 1 -5 -8 -11 -8
-20 0 -10 8 -14 7 -17 -2 -4 -9 -9 -10 -19 -2 -8 5 -21 10 -29 10 -10 -1 -17
13 -21 44 l-6 45 -2 -50z"/>
<path d="M1526 511 c-14 -15 -15 -21 -4 -27 7 -4 10 -3 5 1 -4 5 0 17 10 27 9
10 14 18 11 18 -3 0 -13 -9 -22 -19z"/>
<path d="M470 501 c5 -11 15 -23 21 -27 6 -3 3 5 -6 20 -20 30 -30 35 -15 7z"/>
<path d="M2485 511 c-3 -5 -1 -12 5 -16 5 -3 10 1 10 9 0 18 -6 21 -15 7z"/>
<path d="M5524 501 c0 -13 6 -17 19 -13 10 2 16 5 15 6 -2 1 -10 7 -18 13 -13
10 -16 8 -16 -6z"/>
<path d="M180 503 c0 -5 5 -15 10 -23 8 -12 10 -11 10 8 0 12 -4 22 -10 22 -5
0 -10 -3 -10 -7z"/>
<path d="M2676 503 c-11 -11 -6 -23 9 -23 8 0 15 4 15 9 0 13 -16 22 -24 14z"/>
<path d="M5180 500 c0 -5 5 -10 11 -10 5 0 7 5 4 10 -3 6 -8 10 -11 10 -2 0
-4 -4 -4 -10z"/>
<path d="M5830 490 c0 -5 7 -10 16 -10 8 0 12 5 9 10 -3 6 -10 10 -16 10 -5 0
-9 -4 -9 -10z"/>
<path d="M5920 490 c0 -5 5 -10 11 -10 5 0 7 5 4 10 -3 6 -8 10 -11 10 -2 0
-4 -4 -4 -10z"/>
<path d="M6030 496 c0 -2 9 -6 20 -9 11 -3 20 -1 20 4 0 5 -9 9 -20 9 -11 0
-20 -2 -20 -4z"/>
<path d="M1436 475 c-11 -8 -15 -15 -9 -15 6 0 16 7 23 15 16 19 11 19 -14 0z"/>
<path d="M2735 480 c3 -5 8 -10 11 -10 2 0 4 5 4 10 0 6 -5 10 -11 10 -5 0 -7
-4 -4 -10z"/>
<path d="M5989 461 c-4 -22 -6 -23 -19 -10 -23 21 -65 18 -63 -6 4 -53 26
-333 27 -352 1 -13 4 -23 9 -23 4 0 10 0 13 0 3 0 5 84 4 186 -1 166 1 186 15
180 17 -6 30 15 22 36 -2 7 -6 2 -8 -11z"/>
<path d="M6182 395 c0 -49 0 -142 -1 -205 -3 -190 -3 -193 13 -178 8 7 10 14
5 16 -11 4 -12 42 -1 42 5 0 14 69 20 153 7 83 15 171 18 195 5 39 4 42 -20
42 -13 0 -26 6 -29 13 -2 6 -4 -28 -5 -78z"/>
<path d="M3432 450 c0 -14 2 -19 5 -12 2 6 2 18 0 25 -3 6 -5 1 -5 -13z"/>
<path d="M6075 462 c-39 -6 -50 -13 -38 -20 8 -5 14 -70 19 -190 4 -100 10
-185 14 -187 7 -4 23 146 21 190 -1 11 1 58 5 103 l6 84 29 -4 c18 -3 29 0 29
7 0 7 -11 11 -27 9 -15 -1 -30 1 -33 5 -3 4 -14 5 -25 3z"/>
<path d="M182 373 c2 -87 2 -87 5 -18 2 38 8 74 13 81 10 11 4 24 -12 24 -4 0
-7 -39 -6 -87z"/>
<path d="M515 450 c-3 -5 3 -10 15 -10 12 0 18 5 15 10 -3 6 -10 10 -15 10 -5
0 -12 -4 -15 -10z"/>
<path d="M2526 451 c-19 -7 -19 -8 2 -13 15 -4 22 -2 22 8 0 8 -1 14 -2 13 -2
0 -12 -4 -22 -8z"/>
<path d="M2684 435 c0 -14 4 -25 9 -25 10 0 9 38 -2 44 -5 3 -8 -5 -7 -19z"/>
<path d="M2780 450 c-24 -6 -23 -7 8 -13 20 -4 41 -2 50 4 14 9 14 10 -5 6
-12 -3 -23 -2 -25 2 -2 4 -14 4 -28 1z"/>
<path d="M3398 453 c-10 -2 -18 -8 -18 -13 0 -4 9 -6 20 -3 11 3 20 9 20 14 0
5 -1 8 -2 8 -2 -1 -11 -3 -20 -6z"/>
<path d="M4431 444 c0 -11 3 -14 6 -6 3 7 2 16 -1 19 -3 4 -6 -2 -5 -13z"/>
<path d="M5047 453 c-4 -3 -7 -11 -7 -17 0 -6 5 -5 12 2 6 6 9 14 7 17 -3 3
-9 2 -12 -2z"/>
<path d="M5100 445 c0 -8 8 -11 20 -8 11 3 20 7 20 8 0 1 -9 5 -20 8 -12 3
-20 0 -20 -8z"/>
<path d="M5433 410 c0 -30 2 -43 4 -27 2 15 2 39 0 55 -2 15 -4 2 -4 -28z"/>
<path d="M6011 444 c0 -11 3 -14 6 -6 3 7 2 16 -1 19 -3 4 -6 -2 -5 -13z"/>
<path d="M308 443 c7 -3 16 -2 19 1 4 3 -2 6 -13 5 -11 0 -14 -3 -6 -6z"/>
<path d="M580 440 c0 -5 4 -10 9 -10 6 0 13 5 16 10 3 6 -1 10 -9 10 -9 0 -16
-4 -16 -10z"/>
<path d="M640 440 c0 -5 5 -10 10 -10 6 0 10 5 10 10 0 6 -4 10 -10 10 -5 0
-10 -4 -10 -10z"/>
<path d="M760 446 c0 -2 7 -9 15 -16 9 -7 15 -8 15 -2 0 5 -7 12 -15 16 -8 3
-15 4 -15 2z"/>
<path d="M1430 420 c0 -16 5 -30 11 -30 5 0 9 8 7 18 -1 9 1 23 5 30 5 8 3 12
-7 12 -11 0 -16 -9 -16 -30z"/>
<path d="M1748 443 c7 -3 16 -2 19 1 4 3 -2 6 -13 5 -11 0 -14 -3 -6 -6z"/>
<path d="M2008 443 c7 -3 16 -2 19 1 4 3 -2 6 -13 5 -11 0 -14 -3 -6 -6z"/>
<path d="M2093 443 c15 -2 37 -2 50 0 12 2 0 4 -28 4 -27 0 -38 -2 -22 -4z"/>
<path d="M2720 439 c0 -5 5 -7 10 -4 6 3 10 8 10 11 0 2 -4 4 -10 4 -5 0 -10
-5 -10 -11z"/>
<path d="M3108 443 c7 -3 16 -2 19 1 4 3 -2 6 -13 5 -11 0 -14 -3 -6 -6z"/>
<path d="M3458 443 c7 -3 16 -2 19 1 4 3 -2 6 -13 5 -11 0 -14 -3 -6 -6z"/>
<path d="M3776 441 c-4 -5 3 -7 14 -4 23 6 26 13 6 13 -8 0 -17 -4 -20 -9z"/>
<path d="M5380 439 c0 -5 5 -7 10 -4 6 3 10 8 10 11 0 2 -4 4 -10 4 -5 0 -10
-5 -10 -11z"/>
<path d="M5470 426 c5 -13 7 -26 4 -28 -2 -3 2 -5 9 -5 11 0 11 5 0 29 -18 34
-26 37 -13 4z"/>
<path d="M5868 443 c7 -3 16 -2 19 1 4 3 -2 6 -13 5 -11 0 -14 -3 -6 -6z"/>
<path d="M5172 386 c1 -48 3 -53 16 -39 15 14 19 63 7 83 -14 23 -23 7 -23
-44z"/>
<path d="M1073 415 c0 -8 4 -12 9 -9 5 3 6 10 3 15 -9 13 -12 11 -12 -6z"/>
<path d="M3183 365 c0 -38 2 -53 4 -32 2 20 2 52 0 70 -2 17 -4 1 -4 -38z"/>
<path d="M6290 420 c0 -5 5 -10 11 -10 5 0 7 5 4 10 -3 6 -8 10 -11 10 -2 0
-4 -4 -4 -10z"/>
<path d="M2481 404 c0 -11 3 -14 6 -6 3 7 2 16 -1 19 -3 4 -6 -2 -5 -13z"/>
<path d="M2721 404 c0 -11 3 -14 6 -6 3 7 2 16 -1 19 -3 4 -6 -2 -5 -13z"/>
<path d="M3432 314 l-2 -112 -30 3 c-19 2 -29 -2 -27 -8 2 -6 14 -11 28 -11
23 0 24 -3 30 -96 l5 -95 2 95 2 96 73 -3 c50 -2 66 0 52 6 -11 5 -43 10 -72
10 l-52 1 -4 113 -3 112 -2 -111z"/>
<path d="M4429 383 c-2 -131 2 -378 6 -382 3 -2 5 91 5 207 0 117 -2 212 -5
212 -3 0 -5 -17 -6 -37z"/>
<path d="M5986 404 c-9 -23 -2 -28 13 -10 7 8 8 17 3 20 -6 3 -13 -1 -16 -10z"/>
<path d="M1181 394 c0 -11 3 -14 6 -6 3 7 2 16 -1 19 -3 4 -6 -2 -5 -13z"/>
<path d="M2427 403 c-2 -5 -1 -19 4 -33 7 -23 7 -23 8 8 1 31 -3 40 -12 25z"/>
<path d="M5593 395 c0 -8 4 -12 8 -9 4 2 10 -2 12 -8 4 -8 6 -9 6 -2 1 6 -5
17 -12 23 -10 8 -14 7 -14 -4z"/>
<path d="M1370 390 c-13 -9 -13 -10 0 -10 13 0 13 -1 0 -10 -13 -8 -13 -10 2
-10 11 0 16 7 15 20 -1 11 -1 20 -2 20 0 0 -7 -5 -15 -10z"/>
<path d="M3201 384 c0 -11 3 -14 6 -6 3 7 2 16 -1 19 -3 4 -6 -2 -5 -13z"/>
<path d="M4462 380 c0 -14 2 -19 5 -12 2 6 2 18 0 25 -3 6 -5 1 -5 -13z"/>
<path d="M3562 370 c-18 -29 -15 -38 4 -12 9 13 14 25 12 27 -2 2 -9 -5 -16
-15z"/>
<path d="M2680 357 c0 -15 4 -27 9 -27 6 0 8 10 6 21 -6 33 -15 36 -15 6z"/>
<path d="M5870 360 c0 -5 7 -7 15 -4 8 4 15 8 15 10 0 2 -7 4 -15 4 -8 0 -15
-4 -15 -10z"/>
<path d="M1308 353 c7 -3 16 -2 19 1 4 3 -2 6 -13 5 -11 0 -14 -3 -6 -6z"/>
<path d="M1428 333 c3 -18 7 -21 13 -11 12 18 11 25 -4 31 -10 4 -13 -2 -9
-20z"/>
<path d="M3202 340 c0 -14 2 -19 5 -12 2 6 2 18 0 25 -3 6 -5 1 -5 -13z"/>
<path d="M3310 350 c0 -5 5 -10 10 -10 6 0 10 5 10 10 0 6 -4 10 -10 10 -5 0
-10 -4 -10 -10z"/>
<path d="M4326 335 c-9 -13 -12 -26 -7 -29 5 -3 12 5 15 19 4 16 11 22 21 19
8 -4 15 -4 15 -1 0 3 -6 7 -14 10 -8 3 -21 -4 -30 -18z"/>
<path d="M836 342 c-2 -4 0 -14 6 -22 8 -12 9 -11 4 4 -5 14 -2 17 9 12 9 -3
13 -2 10 4 -7 12 -22 13 -29 2z"/>
<path d="M4480 345 c0 -5 5 -17 10 -25 5 -8 10 -10 10 -5 0 6 -5 17 -10 25 -5
8 -10 11 -10 5z"/>
<path d="M5433 305 c0 -27 2 -38 4 -22 2 15 2 37 0 50 -2 12 -4 0 -4 -28z"/>
<path d="M3845 330 c-3 -5 -1 -10 4 -10 6 0 11 5 11 10 0 6 -2 10 -4 10 -3 0
-8 -4 -11 -10z"/>
<path d="M5731 324 c0 -11 3 -14 6 -6 3 7 2 16 -1 19 -3 4 -6 -2 -5 -13z"/>
<path d="M1553 305 c0 -8 4 -12 9 -9 5 3 6 10 3 15 -9 13 -12 11 -12 -6z"/>
<path d="M3881 303 c0 -11 3 -13 6 -5 2 6 9 10 14 6 5 -3 9 0 9 5 0 6 -7 11
-15 11 -8 0 -15 -8 -14 -17z"/>
<path d="M5882 304 c-7 -8 -8 -14 -3 -14 10 0 25 19 20 25 -2 1 -10 -3 -17
-11z"/>
<path d="M928 288 c3 -14 1 -19 -6 -14 -7 4 -12 3 -12 -2 0 -11 24 -22 46 -22
8 0 14 4 14 9 0 5 -10 7 -22 4 -13 -3 -19 -1 -13 4 15 13 16 31 1 36 -10 4
-12 -1 -8 -15z"/>
<path d="M1680 276 c0 -31 6 -34 13 -6 3 11 1 23 -4 26 -5 3 -9 -6 -9 -20z"/>
<path d="M4250 285 c-10 -12 -9 -16 4 -21 9 -4 20 -3 24 1 4 4 1 10 -6 12 -6
3 -10 9 -6 14 9 14 -2 10 -16 -6z"/>
<path d="M1315 273 c-16 -12 -16 -14 -3 -10 10 3 20 2 23 -3 9 -15 22 -12 22
4 0 8 -6 12 -15 8 -10 -3 -13 -1 -8 6 10 16 5 15 -19 -5z"/>
<path d="M4600 275 c0 -8 2 -15 4 -15 2 0 6 7 10 15 3 8 1 15 -4 15 -6 0 -10
-7 -10 -15z"/>
<path d="M5258 283 c6 -2 18 -2 25 0 6 3 1 5 -13 5 -14 0 -19 -2 -12 -5z"/>
<path d="M1426 272 c-2 -4 -1 -14 5 -22 7 -12 9 -10 9 8 0 23 -5 28 -14 14z"/>
<path d="M3051 264 c0 -11 3 -14 6 -6 3 7 2 16 -1 19 -3 4 -6 -2 -5 -13z"/>
<path d="M4212 266 c7 -8 15 -12 17 -11 5 6 -10 25 -20 25 -5 0 -4 -6 3 -14z"/>
<path d="M4630 265 c0 -8 4 -15 8 -15 5 0 9 7 9 15 0 8 -4 15 -9 15 -4 0 -8
-7 -8 -15z"/>
<path d="M6310 270 c0 -5 5 -10 10 -10 6 0 10 5 10 10 0 6 -4 10 -10 10 -5 0
-10 -4 -10 -10z"/>
<path d="M182 265 c4 -4 4 -13 -1 -19 -5 -6 -5 -20 -1 -31 6 -17 8 -15 12 13
3 18 0 36 -6 39 -6 3 -8 3 -4 -2z"/>
<path d="M1610 266 c0 -2 7 -7 16 -10 8 -3 12 -2 9 4 -6 10 -25 14 -25 6z"/>
<path d="M1890 259 c0 -5 5 -7 10 -4 6 3 10 8 10 11 0 2 -4 4 -10 4 -5 0 -10
-5 -10 -11z"/>
<path d="M3680 261 c0 -5 7 -11 15 -15 8 -3 15 -1 15 3 0 5 -7 11 -15 15 -8 3
-15 1 -15 -3z"/>
<path d="M3876 257 c3 -10 9 -15 12 -12 3 3 0 11 -7 18 -10 9 -11 8 -5 -6z"/>
<path d="M4180 251 c0 -25 6 -27 13 -6 4 8 2 17 -3 20 -6 4 -10 -3 -10 -14z"/>
<path d="M4492 245 c0 -16 2 -22 5 -12 2 9 2 23 0 30 -3 6 -5 -1 -5 -18z"/>
<path d="M498 253 c7 -3 16 -2 19 1 4 3 -2 6 -13 5 -11 0 -14 -3 -6 -6z"/>
<path d="M543 253 c9 -2 25 -2 35 0 9 3 1 5 -18 5 -19 0 -27 -2 -17 -5z"/>
<path d="M1048 253 c7 -3 16 -2 19 1 4 3 -2 6 -13 5 -11 0 -14 -3 -6 -6z"/>
<path d="M1235 250 c-3 -6 1 -7 9 -4 18 7 21 14 7 14 -6 0 -13 -4 -16 -10z"/>
<path d="M2377 249 c7 -7 15 -10 18 -7 3 3 -2 9 -12 12 -14 6 -15 5 -6 -5z"/>
<path d="M4088 253 c7 -3 16 -2 19 1 4 3 -2 6 -13 5 -11 0 -14 -3 -6 -6z"/>
<path d="M4906 248 c3 -4 11 -5 19 -1 21 7 19 12 -4 10 -11 0 -18 -5 -15 -9z"/>
<path d="M6010 250 c0 -5 5 -10 10 -10 6 0 10 5 10 10 0 6 -4 10 -10 10 -5 0
-10 -4 -10 -10z"/>
<path d="M716 241 c-4 -5 3 -7 14 -4 23 6 26 13 6 13 -8 0 -17 -4 -20 -9z"/>
<path d="M1180 235 c0 -8 2 -15 4 -15 2 0 6 7 10 15 3 8 1 15 -4 15 -6 0 -10
-7 -10 -15z"/>
<path d="M5411 234 c0 -11 3 -14 6 -6 3 7 2 16 -1 19 -3 4 -6 -2 -5 -13z"/>
<path d="M5433 205 c0 -27 2 -38 4 -22 2 15 2 37 0 50 -2 12 -4 0 -4 -28z"/>
<path d="M2183 120 c1 -105 2 -110 4 -32 l4 92 104 0 c57 0 106 4 109 9 7 11
-67 21 -150 21 -51 0 -63 3 -67 18 -3 9 -4 -39 -4 -108z"/>
<path d="M3180 219 c0 -15 -5 -19 -15 -15 -18 7 -45 -2 -45 -15 0 -6 12 -8 27
-7 21 2 28 -2 34 -22 5 -19 7 -11 8 28 1 28 -1 52 -4 52 -3 0 -5 -9 -5 -21z"/>
<path d="M3680 221 c0 -18 -6 -21 -46 -21 -28 0 -43 -4 -39 -10 4 -6 23 -9 43
-8 l37 3 3 -75 c4 -114 9 -125 11 -23 1 63 5 93 14 96 9 4 9 8 -2 15 -7 5 -11
14 -7 20 3 6 2 13 -4 17 -5 3 -10 -3 -10 -14z"/>
<path d="M1421 211 c-6 -10 -7 -21 -4 -25 4 -4 6 -47 4 -96 -2 -60 1 -90 8
-90 6 0 11 19 12 43 1 23 3 75 5 115 4 72 -5 91 -25 53z"/>
<path d="M1930 204 c0 -14 4 -23 9 -20 5 3 7 15 4 26 -7 28 -13 25 -13 -6z"/>
<path d="M2122 205 c0 -16 2 -22 5 -12 2 9 2 23 0 30 -3 6 -5 -1 -5 -18z"/>
<path d="M2807 209 c-10 -6 -28 -10 -40 -9 -36 3 -47 1 -47 -11 0 -6 15 -10
33 -8 17 1 65 1 105 0 l72 -1 2 -92 2 -93 5 95 6 95 57 -3 c31 -2 65 1 75 7
14 8 6 11 -37 12 -30 1 -65 1 -77 1 -13 -1 -23 4 -23 10 0 9 -3 9 -12 0 -14
-14 -95 -16 -100 -3 -2 6 -10 6 -21 0z"/>
<path d="M4118 214 c-3 -3 -30 -7 -59 -10 -81 -7 -85 -24 -6 -24 l66 0 4 -92
3 -93 2 93 c1 50 6 92 11 92 5 0 16 3 25 6 13 5 16 -9 19 -93 l3 -98 2 99 2
98 73 -6 c66 -6 70 -6 53 8 -15 12 -38 15 -95 12 -42 -2 -81 0 -87 5 -6 5 -13
6 -16 3z"/>
<path d="M0 202 c0 -13 91 -22 110 -11 11 6 9 9 -10 9 -14 0 -42 3 -62 6 -23
4 -38 2 -38 -4z"/>
<path d="M285 201 c-2 -5 4 -11 15 -14 11 -3 20 -2 20 3 0 12 -28 21 -35 11z"/>
<path d="M460 195 c0 -8 8 -11 20 -8 11 3 20 7 20 8 0 1 -9 5 -20 8 -12 3 -20
0 -20 -8z"/>
<path d="M535 200 c-3 -5 3 -10 14 -10 10 0 28 -3 38 -6 10 -3 7 2 -7 10 -30
18 -37 19 -45 6z"/>
<path d="M785 200 c-14 -6 3 -9 53 -9 46 -1 71 3 67 9 -7 12 -92 12 -120 0z"/>
<path d="M1510 194 c0 -8 5 -12 10 -9 6 4 8 11 5 16 -9 14 -15 11 -15 -7z"/>
<path d="M1545 201 c-6 -11 9 -23 19 -14 9 9 7 23 -3 23 -6 0 -12 -4 -16 -9z"/>
<path d="M1816 200 c-19 -6 -19 -7 -1 -13 20 -8 29 -4 24 11 -2 5 -13 6 -23 2z"/>
<path d="M2086 202 c-3 -6 -1 -14 5 -17 15 -10 25 3 12 16 -7 7 -13 7 -17 1z"/>
<path d="M2430 198 c0 -4 7 -8 15 -8 8 0 17 0 20 0 3 0 4 3 3 7 -4 10 -38 11
-38 1z"/>
<path d="M2570 200 l-65 -6 63 -4 c35 -3 66 -1 69 3 7 12 4 12 -67 7z"/>
<path d="M3200 195 c0 -6 30 -9 72 -8 94 2 88 2 88 11 0 4 -36 8 -80 7 -46 0
-80 -4 -80 -10z"/>
<path d="M3781 201 c-10 -6 -9 -10 3 -14 8 -3 18 -2 21 3 8 13 -9 20 -24 11z"/>
<path d="M3850 195 c0 -9 6 -12 15 -9 8 4 15 7 15 9 0 2 -7 5 -15 9 -9 3 -15
0 -15 -9z"/>
<path d="M3931 194 c0 -11 3 -14 6 -6 3 7 2 16 -1 19 -3 4 -6 -2 -5 -13z"/>
<path d="M4365 200 c-3 -5 -2 -10 4 -10 5 0 13 5 16 10 3 6 2 10 -4 10 -5 0
-13 -4 -16 -10z"/>
<path d="M4515 202 c-12 -12 -2 -18 35 -19 22 -1 40 3 40 8 0 5 -6 9 -12 10
-7 0 -23 2 -36 3 -12 2 -24 0 -27 -2z"/>
<path d="M4660 202 c-14 -2 -29 -8 -35 -14 -7 -7 -2 -9 14 -5 14 3 31 1 38 -5
9 -8 13 -7 13 2 0 7 7 10 15 6 8 -3 15 -2 15 3 0 11 -29 18 -60 13z"/>
<path d="M4931 194 c0 -11 3 -14 6 -6 3 7 2 16 -1 19 -3 4 -6 -2 -5 -13z"/>
<path d="M4961 194 c0 -11 3 -14 6 -6 3 7 2 16 -1 19 -3 4 -6 -2 -5 -13z"/>
<path d="M4998 203 c-10 -3 -18 -8 -18 -12 0 -9 37 -8 45 1 9 9 -7 15 -27 11z"/>
<path d="M5714 199 c-6 -10 5 -15 39 -17 15 -1 27 2 27 7 0 11 -59 20 -66 10z"/>
<path d="M6025 200 c-19 -8 -19 -9 3 -9 12 -1 22 4 22 9 0 6 -1 10 -2 9 -2 0
-12 -4 -23 -9z"/>
<path d="M6423 194 c0 -8 4 -14 9 -14 4 0 8 5 8 11 0 5 6 7 13 3 6 -4 8 -3 4
1 -13 15 -34 14 -34 -1z"/>
<path d="M228 193 c6 -2 18 -2 25 0 6 3 1 5 -13 5 -14 0 -19 -2 -12 -5z"/>
<path d="M405 190 c-3 -5 -1 -10 4 -10 6 0 11 5 11 10 0 6 -2 10 -4 10 -3 0
-8 -4 -11 -10z"/>
<path d="M993 193 c9 -2 25 -2 35 0 9 3 1 5 -18 5 -19 0 -27 -2 -17 -5z"/>
<path d="M1358 188 c5 -5 16 -8 23 -6 8 3 3 7 -10 11 -17 4 -21 3 -13 -5z"/>
<path d="M1856 188 c3 -5 10 -6 15 -3 13 9 11 12 -6 12 -8 0 -12 -4 -9 -9z"/>
<path d="M1995 190 c-13 -6 -15 -9 -5 -9 8 0 22 4 30 9 18 12 2 12 -25 0z"/>
<path d="M4738 193 c7 -3 16 -2 19 1 4 3 -2 6 -13 5 -11 0 -14 -3 -6 -6z"/>
<path d="M4830 190 c19 -13 30 -13 30 0 0 6 -10 10 -22 10 -19 0 -20 -2 -8
-10z"/>
<path d="M5118 193 c6 -2 18 -2 25 0 6 3 1 5 -13 5 -14 0 -19 -2 -12 -5z"/>
<path d="M5873 193 c9 -2 23 -2 30 0 6 3 -1 5 -18 5 -16 0 -22 -2 -12 -5z"/>
<path d="M6340 196 c0 -9 30 -14 35 -6 4 6 -3 10 -14 10 -12 0 -21 -2 -21 -4z"/>
<path d="M434 95 c0 -55 1 -76 3 -47 2 29 2 74 0 100 -2 26 -3 2 -3 -53z"/>
<path d="M1078 183 c7 -3 16 -2 19 1 4 3 -2 6 -13 5 -11 0 -14 -3 -6 -6z"/>
<path d="M5798 183 c7 -3 16 -2 19 1 4 3 -2 6 -13 5 -11 0 -14 -3 -6 -6z"/>
<path d="M930 125 c0 -32 2 -56 4 -54 8 7 10 98 3 105 -4 4 -7 -19 -7 -51z"/>
<path d="M1184 90 c0 -52 1 -74 3 -47 2 26 2 68 0 95 -2 26 -3 4 -3 -48z"/>
<path d="M2434 90 c0 -52 1 -74 3 -47 2 26 2 68 0 95 -2 26 -3 4 -3 -48z"/>
<path d="M590 161 c0 -6 4 -12 8 -15 5 -3 9 1 9 9 0 8 -4 15 -9 15 -4 0 -8 -4
-8 -9z"/>
<path d="M682 140 c0 -19 2 -27 5 -17 2 9 2 25 0 35 -3 9 -5 1 -5 -18z"/>
<path d="M1018 163 c7 -3 16 -2 19 1 4 3 -2 6 -13 5 -11 0 -14 -3 -6 -6z"/>
<path d="M1934 85 c0 -50 1 -71 3 -48 2 23 2 64 0 90 -2 26 -3 8 -3 -42z"/>
<path d="M2681 87 c1 -48 5 -87 10 -87 10 0 7 156 -4 166 -4 5 -7 -31 -6 -79z"/>
<path d="M2724 85 c0 -50 1 -71 3 -48 2 23 2 64 0 90 -2 26 -3 8 -3 -42z"/>
<path d="M2964 85 c0 -50 1 -71 3 -48 2 23 2 64 0 90 -2 26 -3 8 -3 -42z"/>
<path d="M3654 85 c0 -50 1 -71 3 -48 2 23 2 64 0 90 -2 26 -3 8 -3 -42z"/>
<path d="M4934 85 c0 -50 1 -71 3 -48 2 23 2 64 0 90 -2 26 -3 8 -3 -42z"/>
<path d="M5684 85 c0 -50 1 -71 3 -48 2 23 2 64 0 90 -2 26 -3 8 -3 -42z"/>
<path d="M6420 85 c0 -47 4 -85 9 -85 15 0 21 28 21 95 0 47 -4 64 -15 69 -13
4 -15 -8 -15 -79z"/>
<path d="M176 133 c-9 -45 -4 -90 10 -90 9 0 13 17 13 54 0 58 -14 79 -23 36z"/>
<path d="M728 120 c2 -22 7 -42 11 -44 3 -2 4 16 2 40 -1 24 -6 44 -10 44 -3
0 -5 -18 -3 -40z"/>
<path d="M2083 153 c-14 -5 -19 -103 -5 -103 29 0 43 64 20 89 -10 11 -10 13
0 7 6 -4 12 -2 12 3 0 12 -7 13 -27 4z"/>
<path d="M4261 144 c0 -11 3 -14 6 -6 3 7 2 16 -1 19 -3 4 -6 -2 -5 -13z"/>
<path d="M4530 151 c0 -6 4 -13 10 -16 6 -3 7 1 4 9 -7 18 -14 21 -14 7z"/>
<path d="M6355 150 c3 -5 8 -10 11 -10 2 0 4 5 4 10 0 6 -5 10 -11 10 -5 0 -7
-4 -4 -10z"/>
<path d="M254 82 l-2 -67 10 59 c5 32 6 62 1 67 -4 4 -9 -22 -9 -59z"/>
<path d="M1203 75 c0 -44 2 -61 4 -37 2 23 2 59 0 80 -2 20 -4 1 -4 -43z"/>
<path d="M3922 100 c0 -28 4 -52 9 -55 4 -3 8 19 8 50 -1 30 -5 55 -9 55 -5 0
-9 -23 -8 -50z"/>
<path d="M6310 120 c0 -11 5 -20 10 -20 6 0 10 9 10 20 0 11 -4 20 -10 20 -5
0 -10 -9 -10 -20z"/>
<path d="M4491 114 c0 -11 3 -14 6 -6 3 7 2 16 -1 19 -3 4 -6 -2 -5 -13z"/>
<path d="M1903 80 c0 -25 2 -35 4 -22 2 12 2 32 0 45 -2 12 -4 2 -4 -23z"/>
<path d="M2480 60 c0 -47 3 -60 15 -60 11 0 15 12 15 44 0 49 -7 76 -21 76 -5
0 -9 -27 -9 -60z"/>
<path d="M4683 60 c0 -36 2 -50 4 -32 2 17 2 47 0 65 -2 17 -4 3 -4 -33z"/>
<path d="M711 94 c0 -11 3 -14 6 -6 3 7 2 16 -1 19 -3 4 -6 -2 -5 -13z"/>
<path d="M3183 55 c0 -33 2 -45 4 -27 2 18 2 45 0 60 -2 15 -4 0 -4 -33z"/>
<path d="M6230 95 c0 -8 4 -15 10 -15 5 0 7 7 4 15 -4 8 -8 15 -10 15 -2 0 -4
-7 -4 -15z"/>
<path d="M110 80 c0 -11 5 -20 10 -20 6 0 10 9 10 20 0 11 -4 20 -10 20 -5 0
-10 -9 -10 -20z"/>
<path d="M4529 83 c-13 -16 -12 -17 4 -4 9 7 17 15 17 17 0 8 -8 3 -21 -13z"/>
<path d="M5910 70 c0 -11 4 -20 9 -20 5 0 7 9 4 20 -3 11 -7 20 -9 20 -2 0 -4
-9 -4 -20z"/>
<path d="M683 40 c0 -25 2 -35 4 -22 2 12 2 32 0 45 -2 12 -4 2 -4 -23z"/>
<path d="M493 35 c0 -22 2 -30 4 -17 2 12 2 30 0 40 -3 9 -5 -1 -4 -23z"/>
<path d="M713 35 c0 -22 2 -30 4 -17 2 12 2 30 0 40 -3 9 -5 -1 -4 -23z"/>
<path d="M1683 35 c0 -22 2 -30 4 -17 2 12 2 30 0 40 -3 9 -5 -1 -4 -23z"/>
<path d="M6085 49 c-4 -11 -4 -23 -1 -26 3 -4 6 1 6 11 0 9 4 14 10 11 6 -3 7
1 4 9 -8 21 -11 20 -19 -5z"/>
<path d="M732 30 c0 -19 2 -27 5 -17 2 9 2 25 0 35 -3 9 -5 1 -5 -18z"/>
<path d="M3880 50 c0 -5 5 -10 11 -10 5 0 7 5 4 10 -3 6 -8 10 -11 10 -2 0 -4
-4 -4 -10z"/>
<path d="M4590 29 c0 -16 4 -28 9 -25 8 5 3 56 -5 56 -2 0 -4 -14 -4 -31z"/>
<path d="M6245 50 c-8 -13 5 -13 25 0 13 8 13 10 -2 10 -9 0 -20 -4 -23 -10z"/>
<path d="M1870 25 c0 -14 5 -25 10 -25 6 0 10 11 10 25 0 14 -4 25 -10 25 -5
0 -10 -11 -10 -25z"/>
<path d="M5651 24 c0 -11 3 -14 6 -6 3 7 2 16 -1 19 -3 4 -6 -2 -5 -13z"/>
<path d="M4961 14 c0 -11 3 -14 6 -6 3 7 2 16 -1 19 -3 4 -6 -2 -5 -13z"/>
<path d="M5431 14 c0 -11 3 -14 6 -6 3 7 2 16 -1 19 -3 4 -6 -2 -5 -13z"/>
</g>
</svg>
